<?xml version="1.0" encoding="utf-8"?>
<!-- Generator: Adobe Illustrator 25.2.0, SVG Export Plug-In . SVG Version: 6.00 Build 0)  -->
<svg version="1.1" id="Layer_1" xmlns="http://www.w3.org/2000/svg" xmlns:xlink="http://www.w3.org/1999/xlink" x="0px" y="0px"
	 viewBox="0 0 146.8 26" style="enable-background:new 0 0 146.8 26;" xml:space="preserve">
<style type="text/css">
	.st0{fill:#FFFFFF;}
</style>
<g>
	<path class="st0" d="M9.6,2.4c0.8-0.5,1.9-0.7,3.1-0.7c2.9,0,4.1,1.2,4.4,1.5v0.1c-1.4,0-2.5,0.9-2.5,2.4c0,1.3,1,2.3,2.4,2.3
		c1.6,0,2.5-1.2,2.5-2.5c0-2.5-2.2-4.7-6.7-4.7c-1.7,0-3.1,0.4-4.3,1.1c0.3,0,0.6,0.1,0.8,0.3C9.4,2.2,9.5,2.3,9.6,2.4z"/>
	<path class="st0" d="M13.1,10.4c-0.3-0.1-0.6-0.3-0.7-0.3c-0.3-0.1-1.1-0.1-1.1,0.5c0,0.5,1.4,2.8-0.1,4c5.8,2.6,7,3.9,7,6
		c0,2.4-2.8,3.8-5.4,3.8c-3.2,0-4.6-1.1-4.9-1.4v-0.1c1.4,0,2.4-0.8,2.4-2.3c0-1.3-0.9-2.4-2.4-2.4c-1.6,0-2.5,1.2-2.5,2.6
		c0,2.2,1.9,4.5,7.7,4.5c5.2,0,7.7-3.4,7.7-6.6C20.7,14.4,18.7,12.9,13.1,10.4z"/>
	<path class="st0" d="M6.6,9.4C6.7,9.5,6.9,9.7,7,9.8c-0.2,0.1-0.3,0.3-0.4,0.5c-0.1,0.3-0.2,0.5-0.3,0.8c-0.1,1.1,0.4,1.8,0.6,1.9
		c0.1,0.1,0.2,0.1,0.3,0.1c0,0,0-0.1,0-0.2C7.1,12.6,7,12.4,7,12.4s0,0.1,0.1,0.2c0.1,0.1,0.2,0.3,0.5,0.4c0.1,0.1,0.3,0.1,0.5,0.2
		c0.2,0,0.4,0,0.6-0.1c0.4-0.2,0.6-0.5,0.7-0.8c0-0.2,0-0.3,0-0.3c0-0.1,0-0.1-0.1-0.1c0,0-0.1,0.2-0.2,0.3
		c-0.1,0.1-0.2,0.2-0.4,0.3c-0.1,0.1-0.2,0.1-0.2,0.1c0.2-0.2,0.3-0.4,0.3-0.6c0-0.2-0.1-0.3-0.2-0.3c-0.1,0-0.2,0-0.3,0
		c0,0-0.1,0-0.1,0.1l0,0l0,0l0,0c0,0,0,0,0,0c0,0,0,0,0,0c0,0,0,0,0,0c0,0,0,0,0,0c0,0,0,0,0,0c0,0,0,0,0,0c0,0,0,0,0,0c0,0,0,0,0,0
		c0,0,0,0,0,0c0,0,0,0,0,0c-0.1,0-0.2,0-0.3-0.1c-0.1-0.1-0.2-0.2-0.2-0.3c-0.1-0.2-0.1-0.5-0.1-0.6c-0.1,0.1-0.2,0.3-0.3,0.5
		c0,0.2,0,0.5,0,0.7c0.1,0.2,0.2,0.4,0.3,0.5c0.1,0.1,0.1,0.1,0.2,0.1c0,0,0.1,0,0.1,0c-0.3-0.1-0.6-0.4-0.7-0.7
		c-0.1-0.3-0.2-0.8,0-1.1c0.1-0.2,0.2-0.4,0.3-0.5c0.1-0.1,0.2-0.2,0.3-0.3c0.3,0.2,0.6,0.4,0.9,0.5c0.4,0.2,0.8,0.5,1.1,0.8
		c0.3,0.3,0.5,0.6,0.6,0.9c0.1,0.2,0.1,0.3,0.1,0.5c0,0.2,0,0.3-0.1,0.5c-0.1,0.3-0.3,0.6-0.5,0.7c-0.2,0.1-0.5,0.2-0.8,0.1
		c-0.3-0.1-0.5-0.2-0.6-0.5c0,0.3,0.2,0.6,0.5,0.7c0.3,0.2,0.7,0.3,1.1,0.2c0.4-0.1,0.8-0.5,1-0.9c0.1-0.2,0.2-0.5,0.2-0.7
		c0-0.3,0-0.5,0-0.8c-0.1-0.5-0.4-1-0.7-1.4c-0.2-0.6-0.4-1-0.5-1.3c-0.1-0.3,0-0.6,0.1-0.8c0.1-0.2,0.2-0.3,0.4-0.4
		c0.1,0,0.3,0,0.4,0c0.2,0,0.4,0.1,0.5,0.2c0.1,0,0-0.1-0.1-0.1C11.2,8.3,11,8.2,11,8.2c0.3,0,0.5,0.1,0.7,0.3
		C11.9,8.6,12,8.8,12.1,9c0,0.2,0,0.4-0.1,0.5c-0.1,0.1-0.3,0.2-0.4,0.3c-0.3,0.1-0.5,0-0.7-0.1c-0.1,0-0.1-0.1-0.1-0.1c0,0,0,0,0,0
		s0,0,0,0c0,0,0,0.1,0.1,0.1c0.1,0.1,0.2,0.2,0.4,0.2c0.2,0.1,0.4,0.1,0.6,0c0.2-0.1,0.4-0.3,0.6-0.5c0.1-0.3,0.1-0.6,0-0.9
		c-0.1-0.3-0.4-0.5-0.7-0.7c-0.3-0.1-0.7-0.2-1.1-0.1C10.2,7.8,10,7.9,9.8,8C9.6,8.2,9.5,8.4,9.4,8.6C9.3,8.9,9.3,9.1,9.3,9.4
		c0-0.4,0.1-0.9,0.5-1.2c0.2-0.2,0.4-0.3,0.6-0.3c0.2,0,0.4,0,0.6,0c0.4,0.1,0.6,0.2,0.8,0.4c0.1,0.1,0.1,0.1,0.2,0.2
		c0,0,0,0.1,0,0.1c-0.2-0.3-0.6-0.5-1.1-0.5c-0.3,0-0.5,0-0.8,0.2C9.8,8.3,9.6,8.6,9.6,8.9c-0.1,0.3,0,0.6,0.1,1c0,0,0,0,0,0.1
		C9.5,9.8,9.4,9.7,9.2,9.6C8.8,9.3,8.3,9.1,8,8.8C7.6,8.5,7.3,8.2,7,7.8c-0.2-0.3-0.3-0.6-0.3-1c0-0.3,0-0.6,0.2-0.9
		c0.1-0.3,0.4-0.5,0.6-0.6c0.2-0.1,0.5-0.1,0.8-0.1c0.3,0.1,0.5,0.2,0.6,0.4c0.1,0.2,0.2,0.5,0.2,0.7C9.1,6.6,9,6.9,8.9,7
		C8.7,7.2,8.5,7.3,8.3,7.3C8,7.2,7.7,6.9,7.8,6.6c-0.2,0.3,0,0.8,0.4,1c0.3,0.1,0.7,0.1,1-0.1c0.3-0.2,0.6-0.6,0.7-1
		C10,6.1,10,5.6,9.8,5.2c-0.2-0.5-0.6-0.8-1.1-1C8.2,4,7.6,4,7.1,4.2c-0.5,0.2-1,0.6-1.3,1.1C5.6,5.5,5.5,5.8,5.4,6
		C5.4,6.3,5.3,6.6,5.4,6.9c0,0.6,0.2,1.1,0.5,1.6C5.9,8.6,6,8.7,6,8.8C5.7,8.7,5.4,8.5,5.1,8.2c-0.5-0.4-0.9-1.1-1-1.8
		c-0.1-0.3,0-0.6,0-0.9c0-0.3,0.1-0.6,0.1-0.8c0-0.4,0.1-0.9,0-1.5C4.2,2.9,4.1,2.6,3.8,2.3C3.6,2.1,3.3,1.8,2.9,1.7
		C2.5,1.7,2.1,1.7,1.8,2C1.6,2.1,1.5,2.3,1.4,2.5C1.3,2.7,1.3,3,1.4,3.2c0.1,0.2,0.2,0.4,0.4,0.6C1.8,3.8,1.9,3.9,2,3.9
		C2.1,4,2.2,4,2.3,4c0.2,0,0.4,0,0.6-0.1c0.2-0.1,0.3-0.2,0.4-0.3c0,0.1,0,0.2,0,0.3c0,0.4,0,0.8,0,1.4c0,0.3,0,0.6,0,0.9
		c0,0.3,0.1,0.6,0.2,0.9c0.2,0.6,0.6,1.1,1.1,1.4C5.1,8.9,5.6,9.1,6,9.2c0.1,0,0.2,0,0.4,0c0,0,0,0,0,0c-0.2,0-0.5,0.1-0.7,0.1
		C5.2,9.6,4.8,9.9,4.4,10c-0.2,0.1-0.4,0.1-0.6,0.1c-0.2,0-0.4,0-0.5-0.1C3,10,2.7,9.8,2.5,9.6C2.3,9.5,2.2,9.3,2.2,9.2
		C2.1,9,2.1,8.8,2.2,8.7c0.1-0.1,0.2-0.2,0.3-0.3c0.1,0,0.3,0,0.4,0.1C3,8.5,3,8.6,3.1,8.7c0,0.1,0,0.1,0,0.2c0,0,0,0,0.1,0
		c0,0,0.1,0,0.1-0.1c0-0.1,0.1-0.2,0-0.4C3.1,8.3,3,8.2,2.9,8.1c-0.1-0.1-0.4-0.1-0.6,0c0,0,0.1,0,0.2-0.1C2.6,8,2.7,8,2.8,8
		C3,8,3.1,8,3.1,8c0,0,0-0.1-0.2-0.1C2.7,7.9,2.4,7.9,2.2,8C2,8.2,1.8,8.4,1.8,8.6c0,0.1,0,0.2,0,0.3c0,0.1,0,0.2,0,0.2
		c0,0.1,0.1,0.2,0.1,0.2s0,0-0.1-0.1c0-0.1-0.1-0.1-0.1-0.2c0-0.1,0-0.1-0.1-0.1c0,0,0,0.1,0,0.2c0,0.1,0.1,0.3,0.2,0.5
		C2,9.8,2.2,10,2.5,10.2c0.3,0.2,0.7,0.3,1.1,0.3c0.2,0,0.4,0,0.6-0.1c0.2-0.1,0.4-0.1,0.6-0.2c0.3-0.2,0.7-0.4,1-0.5
		C6,9.5,6.3,9.4,6.6,9.4z M8.2,12L8.2,12C8.2,12,8.2,12,8.2,12L8.2,12z M8.2,11.9L8.2,11.9L8.2,11.9C8.2,11.9,8.2,11.9,8.2,11.9
		L8.2,11.9z M3,2.9c0,0,0.1,0.1,0.2,0.2c0.1,0.1,0.1,0.2,0.2,0.4c0,0,0,0,0,0c-0.1,0-0.2,0-0.4,0.1c-0.1,0-0.3,0-0.4,0
		C2.3,3.6,2.2,3.5,2,3.4C1.9,3.3,1.8,3.1,1.9,2.9c0-0.2,0.2-0.4,0.4-0.5c0,0-0.1,0.1-0.1,0.1c-0.1,0.1-0.1,0.2,0,0.3
		c0,0.1,0.1,0.1,0.1,0.1c0,0,0,0,0.1-0.1c0,0,0.1-0.1,0.1-0.2c0.1-0.1,0.2-0.1,0.4-0.1c0.1,0,0.3,0.1,0.4,0.1
		c0.1,0.1,0.1,0.1,0.1,0.1s0,0-0.1-0.1c-0.1,0-0.1,0-0.2,0C2.9,2.8,2.9,2.8,3,2.9z M7.3,10.2c-0.2,0.1-0.3,0.3-0.4,0.5
		c-0.1,0.1-0.1,0.2-0.1,0.2c0-0.1,0-0.3,0.1-0.5c0.1-0.2,0.2-0.3,0.4-0.4c0.1,0,0.1,0.1,0.2,0.1C7.4,10.1,7.3,10.2,7.3,10.2z
		 M9.8,9.8c0-0.2-0.1-0.5,0-0.7c0-0.2,0.1-0.4,0.2-0.5c0.1-0.1,0.2-0.2,0.2-0.2c0.1,0,0.1-0.1,0.1-0.1c-0.2,0.1-0.4,0.4-0.4,0.8
		c0,0.4,0.1,0.8,0.3,1.3c0,0,0,0.1,0,0.1c-0.1-0.1-0.2-0.2-0.3-0.3C9.9,10,9.8,9.9,9.8,9.8z"/>
	<path class="st0" d="M6.9,3.2C7.1,3.2,7.2,3,7.1,2.8C7.1,2.6,6.8,2.5,6.6,2.6C6.4,2.7,6.3,2.9,6.4,3.1C6.5,3.2,6.8,3.3,6.9,3.2z"/>
	<path class="st0" d="M7.8,2.9c0.1,0,0.2-0.1,0.2-0.3c0-0.1-0.1-0.3-0.3-0.2c-0.2,0-0.3,0.2-0.2,0.3C7.6,2.8,7.7,2.9,7.8,2.9z"/>
	<path class="st0" d="M8.6,2.8c0.1,0,0.2-0.1,0.2-0.1c0-0.1,0-0.2-0.1-0.2c-0.1,0-0.2,0.1-0.2,0.1C8.4,2.7,8.5,2.7,8.6,2.8z"/>
	<path class="st0" d="M6,4c0.2-0.2,0.2-0.5,0-0.7C6,3.2,5.9,3.1,5.7,3.1c-0.1,0-0.1,0-0.2,0c-0.1,0-0.1,0.1-0.2,0.1
		C5.2,3.4,5.2,3.4,5.2,3.5c0,0.1,0,0.1,0,0.2c0,0.1,0.1,0.3,0.2,0.4C5.6,4.2,5.9,4.2,6,4z"/>
	<path class="st0" d="M4.8,5.1c0.2,0.1,0.4,0,0.5-0.2c0.1-0.2,0-0.4-0.2-0.5c-0.2-0.1-0.4,0-0.5,0.2C4.5,4.9,4.6,5.1,4.8,5.1z"/>
	<path class="st0" d="M4.7,6.1c0.1,0,0.3-0.1,0.3-0.2c0-0.1-0.1-0.3-0.2-0.3c-0.1,0-0.3,0.1-0.3,0.2C4.4,6,4.5,6.1,4.7,6.1z"/>
	<path class="st0" d="M4.5,6.6c0,0.1,0.1,0.2,0.2,0.1c0.1,0,0.1-0.1,0.1-0.2c0-0.1-0.1-0.1-0.2-0.1C4.6,6.5,4.5,6.6,4.5,6.6z"/>
</g>
<g>
	<path class="st0" d="M23.3,23.3V4.7h3v4c0,1.4-0.1,2.7-0.2,3.7h0.1c0.4-0.7,1.1-1.3,1.9-1.8c0.8-0.5,1.7-0.7,2.7-0.7
		c1.8,0,3.1,0.5,4.1,1.6s1.4,2.5,1.4,4.4v7.4h-3v-7.1c0-1.1-0.3-2-0.8-2.7c-0.5-0.6-1.3-1-2.4-1c-1.1,0-1.9,0.4-2.6,1.1
		c-0.7,0.7-1,1.6-1,2.8v6.9H23.3z"/>
	<path class="st0" d="M42.6,7.7c-0.4,0.3-0.8,0.5-1.4,0.5c-0.5,0-1-0.2-1.4-0.5c-0.4-0.3-0.5-0.8-0.5-1.3c0-0.5,0.2-1,0.5-1.3
		c0.4-0.3,0.8-0.5,1.4-0.5s1,0.2,1.4,0.5c0.4,0.3,0.5,0.8,0.5,1.3C43.2,6.9,43,7.3,42.6,7.7z M39.8,23.3V10.2h3v13.1H39.8z"/>
	<path class="st0" d="M50.6,23.3l-5.5-13.1h3.3l1.8,4.6c0.7,1.8,1.4,3.6,2,5.5h0.1c0.7-2,1.3-3.8,2-5.5l1.9-4.6h3.2l-5.5,13.1H50.6z
		"/>
	<path class="st0" d="M65.8,9.9c4.3,0,6.5,1.7,6.5,5.1v8.2h-2.6c0-0.9,0-1.6,0.1-2.1h-0.1c-0.4,0.8-1.1,1.3-2,1.8
		c-0.9,0.4-1.8,0.6-2.7,0.6c-1.4,0-2.6-0.4-3.6-1.1c-1-0.7-1.5-1.8-1.5-3.2c0-1.4,0.5-2.5,1.5-3.2c1-0.8,2.3-1.1,3.7-1.1
		c1.7,0,3,0.3,4.1,0.9v-0.7c0-1.8-1.2-2.7-3.7-2.7c-1.2,0-2.5,0.3-3.9,0.8L61,10.9C62.6,10.2,64.2,9.9,65.8,9.9z M65.7,21
		c0.9,0,1.8-0.3,2.5-0.8c0.7-0.5,1.1-1.2,1.2-2.1c-1-0.7-2.2-1-3.6-1c-0.8,0-1.5,0.2-2,0.5C63.3,18,63,18.5,63,19.1s0.3,1.1,0.8,1.4
		C64.3,20.9,65,21,65.7,21z"/>
</g>
<g>
	<path class="st0" d="M89.5,23.3l-5.4-6.3h-2.6v6.3h-3.1V6.6c0-1.1,0.9-1.9,1.9-1.9H86c2,0,3.5,0.6,4.8,1.7c1.2,1.1,1.8,2.6,1.8,4.4
		c0,1.5-0.4,2.8-1.3,3.9c-0.9,1.1-2,1.8-3.5,2.1l5.7,6.5H89.5z M89.4,10.9c0-1-0.3-1.9-0.9-2.5s-1.5-0.9-2.6-0.9h-4.3v6.6h4.3
		c1.1,0,2-0.3,2.6-0.9S89.4,11.9,89.4,10.9z"/>
	<path class="st0" d="M100.5,9.9c4.3,0,6.5,1.7,6.5,5.1v8.2h-2.6c0-0.9,0-1.6,0.1-2.1h-0.1c-0.4,0.8-1.1,1.3-2,1.8
		c-0.9,0.4-1.8,0.6-2.7,0.6c-1.4,0-2.6-0.4-3.6-1.1c-1-0.7-1.5-1.8-1.5-3.2c0-1.4,0.5-2.5,1.5-3.2c1-0.8,2.3-1.1,3.7-1.1
		c1.7,0,3,0.3,4.1,0.9v-0.7c0-1.8-1.2-2.7-3.7-2.7c-1.2,0-2.5,0.3-3.9,0.8l-0.7-2.3C97.2,10.2,98.8,9.9,100.5,9.9z M100.3,21
		c0.9,0,1.8-0.3,2.5-0.8c0.7-0.5,1.1-1.2,1.2-2.1c-1-0.7-2.2-1-3.6-1c-0.8,0-1.5,0.2-2,0.5c-0.5,0.3-0.8,0.8-0.8,1.5
		s0.3,1.1,0.8,1.4C99,20.9,99.6,21,100.3,21z"/>
	<path class="st0" d="M116.3,16.5l6.5,6.8h-3.8l-3.2-3.4c-1-1-1.7-1.9-2.2-2.6l-0.1,0c0.1,1,0.1,2.2,0.1,3.4v2.5h-3V4.7h3v6.6
		c0,1.9,0,3.4-0.1,4.5l0.1,0c0.5-0.7,1.1-1.4,1.8-2.2l2.9-3.4h3.6L116.3,16.5z"/>
	<path class="st0" d="M124.6,23.3V4.7h3v4c0,1.4-0.1,2.7-0.2,3.7h0.1c0.4-0.7,1.1-1.3,1.9-1.8s1.7-0.7,2.7-0.7
		c1.8,0,3.1,0.5,4.1,1.6s1.4,2.5,1.4,4.4v7.4h-3v-7.1c0-1.1-0.3-2-0.8-2.7c-0.5-0.6-1.3-1-2.4-1c-1.1,0-1.9,0.4-2.6,1.1
		c-0.7,0.7-1,1.6-1,2.8v6.9H124.6z"/>
	<path class="st0" d="M143.9,7.7c-0.4,0.3-0.8,0.5-1.4,0.5c-0.5,0-1-0.2-1.4-0.5c-0.4-0.3-0.5-0.8-0.5-1.3c0-0.5,0.2-1,0.5-1.3
		c0.4-0.3,0.8-0.5,1.4-0.5s1,0.2,1.4,0.5c0.4,0.3,0.5,0.8,0.5,1.3C144.5,6.9,144.3,7.3,143.9,7.7z M141.1,23.3V10.2h3v13.1H141.1z"
		/>
</g>
</svg>
