<svg id="Layer_1" data-name="Layer 1" xmlns="http://www.w3.org/2000/svg" viewBox="0 0 800 800"><defs><style>.cls-1{fill:#ebebeb;}.cls-2{fill:#919191;}.cls-3,.cls-4,.cls-5{fill:none;stroke:#919191;stroke-miterlimit:10;}.cls-4{stroke-dasharray:12.32 12.32;}.cls-5{stroke-dasharray:12.43 12.43;}.cls-6{fill:#ed1c24;}.cls-7{fill:#fff;}</style></defs><rect class="cls-1" width="800" height="638.14"/><path class="cls-2" d="M234.1,302.3v31.8H230V302.3Z"/><path class="cls-2" d="M241.6,317.4c0-2.3-.1-4.3-.2-6.2h3.7l.2,3.8h.1a8.7,8.7,0,0,1,7.6-4.3c3.2,0,8.1,1.9,8.1,9.8v13.6h-4.2V320.9c0-3.7-1.4-6.7-5.3-6.7a5.9,5.9,0,0,0-5.6,4.2,6.5,6.5,0,0,0-.2,2v13.7h-4.2Z"/><path class="cls-2" d="M267.3,329.9a10.8,10.8,0,0,0,5.5,1.6c3,0,4.4-1.5,4.4-3.4s-1.2-3.1-4.3-4.2-6-3.7-6-6.5,3-6.7,7.9-6.7a12.1,12.1,0,0,1,5.6,1.4l-1,3.1a8.7,8.7,0,0,0-4.7-1.4c-2.5,0-3.8,1.5-3.8,3.2s1.3,2.7,4.3,3.8,6,3.5,6,6.9-3.1,6.9-8.5,6.9a12.8,12.8,0,0,1-6.5-1.6Z"/><path class="cls-2" d="M288.9,323.4c.1,5.7,3.7,8,7.8,8a14.8,14.8,0,0,0,6.4-1.2l.7,3a20,20,0,0,1-7.6,1.4c-7.1,0-11.3-4.6-11.3-11.5s4.1-12.4,10.7-12.4,9.5,6.6,9.5,10.8a7.8,7.8,0,0,1-.2,1.9Zm12.2-2.9c0-2.7-1.1-6.8-5.8-6.8s-6,3.9-6.4,6.8Z"/><path class="cls-2" d="M310.2,318.4c0-2.7,0-5-.1-7.2h3.6v4.5h.2c1.1-3,3.6-5,6.4-5l1.1.2v3.9l-1.4-.2c-2.9,0-5,2.3-5.6,5.4a11.5,11.5,0,0,0-.1,1.9v12.2h-4.2Z"/><path class="cls-2" d="M331.8,304.7v6.5h6v3.2h-6v12.4c0,2.8.9,4.4,3.2,4.4a7,7,0,0,0,2.4-.3l.2,3.1a8.9,8.9,0,0,1-3.7.6,5.5,5.5,0,0,1-4.5-1.8c-1.2-1.2-1.6-3.2-1.6-5.9V314.4h-3.6v-3.2h3.6v-5.4Z"/><path class="cls-2" d="M354,311.2l5,13.6c.6,1.5,1.1,3.3,1.5,4.6h.1c.4-1.3.9-3.1,1.5-4.7l4.5-13.5H371l-6.2,16.4c-3,7.8-5.1,11.8-7.9,14.3a11.4,11.4,0,0,1-5.1,2.7l-1-3.5a11.5,11.5,0,0,0,3.6-2.1,12.6,12.6,0,0,0,3.5-4.6,2.2,2.2,0,0,0,.3-1,3.6,3.6,0,0,0-.3-1.1l-8.4-21.1Z"/><path class="cls-2" d="M395,322.5c0,8.5-5.9,12.1-11.4,12.1s-11-4.5-11-11.7,5.1-12.2,11.4-12.2S395,315.5,395,322.5Zm-18.1.2c0,5,2.8,8.8,6.9,8.8s7-3.7,7-8.9-2-8.8-6.9-8.8S376.9,318.4,376.9,322.7Z"/><path class="cls-2" d="M419.4,327.9c0,2.3.1,4.4.2,6.2h-3.7l-.2-3.7h-.1a8.7,8.7,0,0,1-7.6,4.2c-3.6,0-7.9-1.9-7.9-10V311.2h4.2v12.7c0,4.4,1.3,7.3,5.1,7.3a6,6,0,0,0,5.5-3.8,7.1,7.1,0,0,0,.3-2.1V311.2h4.2Z"/><path class="cls-2" d="M426.3,318.4c0-2.7,0-5-.2-7.2h3.7v4.5h.2a6.9,6.9,0,0,1,6.3-5l1.2.2v3.9l-1.4-.2c-2.9,0-5,2.3-5.6,5.4a11.1,11.1,0,0,0-.2,1.9v12.2h-4.1Z"/><path class="cls-2" d="M456.4,304.8a2.5,2.5,0,0,1-2.6,2.6,2.5,2.5,0,0,1-2.5-2.6,2.6,2.6,0,0,1,2.6-2.6A2.5,2.5,0,0,1,456.4,304.8Zm-4.6,29.3V311.2H456v22.9Z"/><path class="cls-2" d="M462.9,317.4c0-2.3-.1-4.3-.2-6.2h3.6l.2,3.7h.1a8,8,0,0,1,7.2-4.2,6.8,6.8,0,0,1,6.5,4.6h.1a9.5,9.5,0,0,1,2.5-3,8.2,8.2,0,0,1,5.1-1.6c3,0,7.5,2,7.5,10v13.4h-4V321.2c0-4.4-1.7-7.1-5-7.1a5.4,5.4,0,0,0-4.9,3.8,6.5,6.5,0,0,0-.4,2.1v14.1h-4V320.4c0-3.6-1.6-6.3-4.8-6.3a5.6,5.6,0,0,0-5.1,4.2,4.5,4.5,0,0,0-.4,2v13.8h-4Z"/><path class="cls-2" d="M515,334.1l-.4-2.9h-.1a8.6,8.6,0,0,1-7,3.4c-4.6,0-7-3.2-7-6.5,0-5.6,4.9-8.6,13.7-8.5v-.5c0-1.9-.5-5.3-5.2-5.3a11.6,11.6,0,0,0-5.9,1.7l-1-2.7a13.9,13.9,0,0,1,7.6-2.1c7,0,8.7,4.8,8.7,9.4v8.5a44.4,44.4,0,0,0,.3,5.5Zm-.7-11.7c-4.5,0-9.7.8-9.7,5.2a3.7,3.7,0,0,0,4,4,5.7,5.7,0,0,0,5.5-3.9,5.9,5.9,0,0,0,.2-1.3Z"/><path class="cls-2" d="M544.8,311.2c-.1,1.7-.2,3.5-.2,6.3v13.3c0,5.3-1,8.5-3.3,10.5s-5.4,2.7-8.3,2.7a15,15,0,0,1-7.6-1.9l1-3.2a12.8,12.8,0,0,0,6.8,1.8c4.2,0,7.3-2.2,7.3-7.9v-2.6h-.1a8,8,0,0,1-7.2,3.8c-5.7,0-9.8-4.8-9.8-11.1s5.1-12.2,10.3-12.2a7.7,7.7,0,0,1,7.2,4h.1v-3.5Zm-4.3,9.1a6.3,6.3,0,0,0-6.1-6.3c-3.9,0-6.8,3.3-6.8,8.6s2.3,8.3,6.8,8.3a6.1,6.1,0,0,0,5.8-4.3,8.3,8.3,0,0,0,.3-2.2Z"/><path class="cls-2" d="M553.8,323.4c.1,5.7,3.7,8,7.9,8a14.6,14.6,0,0,0,6.3-1.2l.7,3a20,20,0,0,1-7.6,1.4c-7,0-11.3-4.6-11.3-11.5s4.1-12.4,10.8-12.4,9.4,6.6,9.4,10.8c0,.9-.1,1.5-.1,1.9Zm12.2-2.9c.1-2.7-1.1-6.8-5.8-6.8s-6,3.9-6.3,6.8Z"/><polyline class="cls-3" points="633.9 404.2 633.9 410.2 627.9 410.2"/><line class="cls-4" x1="615.6" y1="410.2" x2="178.3" y2="410.2"/><polyline class="cls-3" points="172.1 410.2 166.1 410.2 166.1 404.2"/><line class="cls-5" x1="166.1" y1="391.8" x2="166.1" y2="248.8"/><polyline class="cls-3" points="166.1 242.6 166.1 236.6 172.1 236.6"/><line class="cls-4" x1="184.4" y1="236.6" x2="621.7" y2="236.6"/><polyline class="cls-3" points="627.9 236.6 633.9 236.6 633.9 242.6"/><line class="cls-5" x1="633.9" y1="255" x2="633.9" y2="398"/><path class="cls-6" d="M50.7,600.4H169.4L139.2,701.7H50.7a50.7,50.7,0,1,1,0-101.3Z"/><polygon class="cls-7" points="762.5 600.4 732.3 701.8 139.2 701.8 169.4 600.4 762.5 600.4"/><path class="cls-6" d="M766.1,743.7H84.4A54.3,54.3,0,0,1,40,720.6a3.7,3.7,0,1,1,6-4.2,47.3,47.3,0,0,0,38.4,19.9h679l28-93.9H757.9a3.8,3.8,0,0,1-3.7-3.7,3.7,3.7,0,0,1,3.7-3.7h38.4a3.6,3.6,0,0,1,3,1.5,3.3,3.3,0,0,1,.5,3.2L769.7,741A3.8,3.8,0,0,1,766.1,743.7Z"/><path d="M203.1,616l.5-.2h6.9a.5.5,0,0,1,.4.2.4.4,0,0,1,.1.5l-3.7,30.1a.8.8,0,0,1-.2.5l-.5.2H200c-.4,0-.6-.1-.7-.4l-7-15.3h-.2c-.1,0-.1.1-.2.2l-1.7,14.9a.8.8,0,0,1-.2.5l-.5.2h-6.9l-.5-.2a.7.7,0,0,1-.1-.5l3.7-30.1c.1-.2.1-.4.3-.5a.6.6,0,0,1,.5-.2H193c.4,0,.7.1.8.4l6.9,15.3h.2c.1,0,.1-.1.1-.2l1.8-14.9C202.9,616.3,202.9,616.1,203.1,616Z"/><path d="M240.1,622.9H226.6q-.2,0-.3.3l-.5,4.2c0,.1,0,.2.2.2h8.1a.5.5,0,0,1,.4.2.4.4,0,0,1,.1.5l-.7,5.9a.5.5,0,0,1-.2.4c-.1.2-.3.2-.5.2h-8.1c-.2,0-.2.1-.2.3l-.6,4.6c0,.2,0,.3.2.3H238a.9.9,0,0,1,.1.5l-.7,5.9c-.1.2-.1.4-.3.5l-.4.2H215.8l-.5-.2a.7.7,0,0,1-.1-.5l3.8-30.1a.8.8,0,0,1,.2-.5l.5-.2h20.8l.5.2a.7.7,0,0,1,.1.5l-.8,5.9C240.3,622.6,240.2,622.7,240.1,622.9Z"/><path d="M252.8,647.2c-.1-.2-.2-.3-.2-.5l-5-30.1v-.2c0-.2.1-.3.2-.5h7.9a.5.5,0,0,1,.6.6l1.9,14.5a.2.2,0,0,0,.2.2.3.3,0,0,0,.1-.2l4.8-14.5a.8.8,0,0,1,.8-.6h6.3a.7.7,0,0,1,.7.6l1.4,14.5a.2.2,0,0,0,.2.2c.1,0,.1-.1.2-.2l5-14.5a.7.7,0,0,1,.8-.6h7.4l.5.2q.1.2,0,.6l-11.5,30.1a.8.8,0,0,1-.8.6h-6.9c-.5,0-.7-.2-.7-.6l-1.2-15.3c0-.2-.1-.2-.1-.2s-.2,0-.2.2l-4.7,15.3a.7.7,0,0,1-.7.6h-7Z"/><path d="M292.1,645.3a7.7,7.7,0,0,1-3-6.4,7.2,7.2,0,0,1,.1-1.3V637a.6.6,0,0,1,.2-.5.6.6,0,0,1,.5-.2h6.8c.2,0,.4,0,.5.2s.1.2.1.5v.2a2.8,2.8,0,0,0,1.1,2.3,5,5,0,0,0,3.3.9,3.6,3.6,0,0,0,2.5-.8,2.5,2.5,0,0,0,.8-1.7,1.4,1.4,0,0,0-.9-1.3,13.6,13.6,0,0,0-2.9-1.1l-1.2-.4a21.3,21.3,0,0,1-6.4-3.2,7,7,0,0,1-2.6-5.8,9.4,9.4,0,0,1,1.7-5.5,10.2,10.2,0,0,1,4.6-3.8,14.7,14.7,0,0,1,6.4-1.4,12.8,12.8,0,0,1,5.6,1.2,8.3,8.3,0,0,1,3.9,3.2,8.7,8.7,0,0,1,1.4,4.8,7.8,7.8,0,0,1-.1,1.3v.4l-.3.5-.5.2h-6.8a.5.5,0,0,1-.4-.2.4.4,0,0,1-.1-.5h0a4.5,4.5,0,0,0-.3-1.6,3.8,3.8,0,0,0-1.4-1.4,5.2,5.2,0,0,0-2.3-.5,4.3,4.3,0,0,0-2.4.6,2.3,2.3,0,0,0-.9,1.8,1.9,1.9,0,0,0,1.2,1.7,26.6,26.6,0,0,0,4.6,1.9l2.7.9a9.3,9.3,0,0,1,4.1,2.6,7.3,7.3,0,0,1,1.6,4.6,5.4,5.4,0,0,1-.1,1.1,10.2,10.2,0,0,1-4.1,7.2,15.2,15.2,0,0,1-9,2.6C296.7,647.7,294,646.9,292.1,645.3Z"/><path d="M352.2,616l.4-.2h7l.4.2a.7.7,0,0,1,.1.5l-3.7,30.1a.8.8,0,0,1-.2.5l-.5.2h-6.9l-.5-.2a.7.7,0,0,1-.1-.5l1.4-11.4a.2.2,0,0,0-.2-.2h-6.8a.2.2,0,0,0-.2.2L341,646.6c-.1.2-.1.4-.3.5l-.5.2h-6.9l-.5-.2a.7.7,0,0,1-.1-.5l3.8-30.1a.8.8,0,0,1,.2-.5l.5-.2h6.9l.5.2a.7.7,0,0,1,.1.5l-1.4,11a.2.2,0,0,0,.2.2h6.7a.5.5,0,0,0,.4-.2l1.3-11A.5.5,0,0,1,352.2,616Z"/><path d="M364,647.1a.7.7,0,0,1-.1-.5l3.8-30.1a.8.8,0,0,1,.2-.5l.5-.2h6.9l.5.2a.7.7,0,0,1,.1.5l-3.7,30.1c-.1.2-.1.4-.3.5l-.5.2h-6.9Z"/><path d="M383.8,644.9a9.6,9.6,0,0,1-2.9-7.3,8.7,8.7,0,0,1,.1-1.8l1-8.5a14,14,0,0,1,2.3-6.2,12.7,12.7,0,0,1,4.7-4.2,14.1,14.1,0,0,1,6.5-1.5,12.6,12.6,0,0,1,5.7,1.2A9.7,9.7,0,0,1,405,620a8.6,8.6,0,0,1,1.3,4.8V626h0l-.3.5h-7.4c-.4,0-.6-.1-.5-.4a3.2,3.2,0,0,0-.8-2.5,2.9,2.9,0,0,0-2.6-1.1,4.1,4.1,0,0,0-3,1.2,4.7,4.7,0,0,0-1.4,3.1l-1.1,9.1a3.5,3.5,0,0,0-.1.6,3.7,3.7,0,0,0,1.1,2.7,3.5,3.5,0,0,0,2.6,1,4.5,4.5,0,0,0,2.8-.9,3.4,3.4,0,0,0,1.3-2.5v-.6c0-.2,0-.3-.2-.3h-4.3a.9.9,0,0,1-.1-.5l.7-5.4a.8.8,0,0,1,.2-.5c.1-.2.3-.2.5-.2h11.4c.2,0,.3,0,.4.2s.2.3.2.5l-.8,6.1a13.6,13.6,0,0,1-2.2,6,11.8,11.8,0,0,1-4.8,4,13.4,13.4,0,0,1-6.4,1.5C388.3,647.7,385.7,646.8,383.8,644.9Z"/><path d="M430.7,616l.5-.2h6.9a.5.5,0,0,1,.4.2.4.4,0,0,1,.1.5l-3.7,30.1a.8.8,0,0,1-.2.5l-.5.2h-6.9l-.4-.2a.8.8,0,0,1-.2-.5l1.4-11.4c0-.1,0-.2-.2-.2h-6.7c-.2,0-.3.1-.3.2l-1.4,11.4a.5.5,0,0,1-.3.5l-.5.2h-6.9l-.4-.2a.4.4,0,0,1-.1-.5l3.7-30.1a.8.8,0,0,1,.2-.5l.5-.2h6.9l.5.2a.7.7,0,0,1,.1.5l-1.4,11c0,.1.1.2.3.2h6.7c.1,0,.3-.1.3-.2l1.3-11C430.5,616.3,430.5,616.1,430.7,616Z"/><path d="M442.6,647.1a.4.4,0,0,1-.1-.5l3.7-30.1a.8.8,0,0,1,.2-.5l.5-.2h6.9l.5.2a.7.7,0,0,1,.1.5l-2.9,23.3c0,.2.1.3.2.3h14a.9.9,0,0,1,.1.5l-.7,5.9-.3.5-.5.2H443Z"/><path d="M472.1,647.1a.7.7,0,0,1-.1-.5l3.8-30.1a.8.8,0,0,1,.2-.5l.5-.2h6.9l.5.2a.7.7,0,0,1,.1.5l-3.7,30.1c-.1.2-.1.4-.3.5l-.5.2h-6.9Z"/><path d="M491.9,644.9a9.6,9.6,0,0,1-2.9-7.3,8.7,8.7,0,0,1,.1-1.8l1-8.5a14,14,0,0,1,2.3-6.2,12.7,12.7,0,0,1,4.7-4.2,14.1,14.1,0,0,1,6.5-1.5,12.6,12.6,0,0,1,5.7,1.2,9.7,9.7,0,0,1,3.8,3.4,8.6,8.6,0,0,1,1.3,4.8V626h0l-.3.5h-7.4c-.4,0-.6-.1-.5-.4a3.2,3.2,0,0,0-.8-2.5,2.9,2.9,0,0,0-2.6-1.1,4.1,4.1,0,0,0-3,1.2,4.7,4.7,0,0,0-1.4,3.1l-1.1,9.1a3.5,3.5,0,0,0-.1.6,3.7,3.7,0,0,0,1.1,2.7,3.5,3.5,0,0,0,2.6,1,4.5,4.5,0,0,0,2.8-.9A3.4,3.4,0,0,0,505,637v-.6c0-.2,0-.3-.2-.3h-4.3a.9.9,0,0,1-.1-.5l.7-5.4a.8.8,0,0,1,.2-.5c.1-.2.3-.2.5-.2h11.4a.6.6,0,0,1,.5.2.7.7,0,0,1,.1.5l-.8,6.1a13.6,13.6,0,0,1-2.2,6,11.8,11.8,0,0,1-4.8,4,13.4,13.4,0,0,1-6.4,1.5C496.4,647.7,493.8,646.8,491.9,644.9Z"/><path d="M538.8,616l.5-.2h6.9a.5.5,0,0,1,.4.2.4.4,0,0,1,.1.5L543,646.6a.8.8,0,0,1-.2.5l-.5.2h-6.9l-.4-.2c-.2-.1-.2-.3-.2-.5l1.4-11.4c0-.1,0-.2-.2-.2h-6.7c-.2,0-.3.1-.3.2l-1.4,11.4a.5.5,0,0,1-.3.5l-.5.2h-6.9l-.4-.2a.4.4,0,0,1-.1-.5l3.7-30.1a.8.8,0,0,1,.2-.5l.5-.2h6.9l.5.2a.7.7,0,0,1,.1.5l-1.4,11c0,.1.1.2.3.2h6.7c.1,0,.3-.1.3-.2l1.3-11C538.6,616.3,538.6,616.1,538.8,616Z"/><path d="M577.6,616a.8.8,0,0,1,.2.5l-.8,5.9a.8.8,0,0,1-.2.5l-.5.2H569q-.2,0-.3.3l-2.8,23.2c-.1.2-.1.4-.3.5l-.5.2h-6.9l-.5-.2a.7.7,0,0,1-.1-.5l2.9-23.2c0-.2-.1-.3-.2-.3h-7.1l-.5-.2a.7.7,0,0,1-.1-.5l.7-5.9.3-.5.5-.2h23.1A.5.5,0,0,1,577.6,616Z"/><path d="M584,645.3a7.9,7.9,0,0,1-2.9-6.4,7.2,7.2,0,0,1,.1-1.3V637a.6.6,0,0,1,.2-.5c.1-.2.3-.2.5-.2h6.8a.6.6,0,0,1,.5.2c.1.1.1.2.1.5v.2a2.7,2.7,0,0,0,1,2.3,5.4,5.4,0,0,0,3.3.9,3.7,3.7,0,0,0,2.6-.8,2.3,2.3,0,0,0,.7-1.7,1.3,1.3,0,0,0-.8-1.3,16.3,16.3,0,0,0-2.9-1.1l-1.2-.4a20.2,20.2,0,0,1-6.4-3.2,6.7,6.7,0,0,1-2.6-5.8,8.8,8.8,0,0,1,1.7-5.5,10.2,10.2,0,0,1,4.6-3.8,14.6,14.6,0,0,1,6.3-1.4,13.2,13.2,0,0,1,5.7,1.2,9.4,9.4,0,0,1,3.9,3.2,8.7,8.7,0,0,1,1.4,4.8c0,.2-.1.7-.1,1.3v.4a.8.8,0,0,1-.2.5l-.5.2h-6.8l-.5-.2a.7.7,0,0,1-.1-.5h0a2.3,2.3,0,0,0-.3-1.6,3.5,3.5,0,0,0-1.3-1.4,5.2,5.2,0,0,0-2.3-.5,4.3,4.3,0,0,0-2.4.6,2.3,2.3,0,0,0-.9,1.8,1.9,1.9,0,0,0,1.2,1.7,28.3,28.3,0,0,0,4.5,1.9l2.8.9a8.5,8.5,0,0,1,4,2.6,6.9,6.9,0,0,1,1.7,4.6c0,.2-.1.6-.1,1.1a10,10,0,0,1-4.2,7.2,14.7,14.7,0,0,1-8.9,2.6A12.6,12.6,0,0,1,584,645.3Z"/><path class="cls-6" d="M637.2,562.6H748.6a13.9,13.9,0,0,1,13.9,13.9v23.9a0,0,0,0,1,0,0H623.2a0,0,0,0,1,0,0V576.5A13.9,13.9,0,0,1,637.2,562.6Z"/><path class="cls-7" d="M673.4,592.9V571.5c0-.2.1-.3.4-.3h2.3c.2,0,.4.1.4.3v19a.1.1,0,0,0,.1.1h10.8a.3.3,0,0,1,.3.3v2a.3.3,0,0,1-.3.3H673.8C673.5,593.2,673.4,593.1,673.4,592.9Z"/><path class="cls-7" d="M691.3,592.9V571.5a.3.3,0,0,1,.3-.3H694a.3.3,0,0,1,.3.3v21.4a.3.3,0,0,1-.3.3h-2.4A.3.3,0,0,1,691.3,592.9Z"/><path class="cls-7" d="M704.7,592.9,698,571.6v-.2c0-.1.1-.2.3-.2h2.5c.2,0,.4.1.4.3l5.2,17.3a.1.1,0,0,0,.2,0l5.2-17.3a.3.3,0,0,1,.3-.3h2.5c.2,0,.3.1.2.4L708,592.9c-.1.2-.2.3-.4.3H705A.3.3,0,0,1,704.7,592.9Z"/><path class="cls-7" d="M732.3,573.8H721.2a.2.2,0,0,0-.2.2v6.7h7.8a.3.3,0,0,1,.3.3v2a.3.3,0,0,1-.3.3h-7.6a.2.2,0,0,0-.2.2v6.9h11.3a.3.3,0,0,1,.3.3v2a.3.3,0,0,1-.3.3h-14a.3.3,0,0,1-.3-.3V571.5a.3.3,0,0,1,.3-.3h14a.3.3,0,0,1,.3.3v2A.3.3,0,0,1,732.3,573.8Z"/><circle class="cls-7" cx="653.3" cy="583.9" r="7.8"/><path class="cls-7" d="M43.4,642.6a.4.4,0,0,1-.1-.3v-9.7L36,618.5c-.1-.1-.1-.1-.1-.2s.1-.3.4-.3h3.5a.5.5,0,0,1,.5.4l4.9,9.8h.2l5-9.8a.5.5,0,0,1,.5-.4h3.5a.5.5,0,0,1,.4.2.4.4,0,0,1-.1.3l-7.3,14.1v9.7c0,.1-.1.2-.1.3H43.4Z"/><path class="cls-7" d="M61,642a7.1,7.1,0,0,1-3.1-3.1,8.4,8.4,0,0,1-1.1-4.5v-8a8.4,8.4,0,0,1,1.1-4.5,7.7,7.7,0,0,1,3.1-3.1,10.4,10.4,0,0,1,4.7-1,9.9,9.9,0,0,1,4.7,1,8,8,0,0,1,3.2,3.1,9.4,9.4,0,0,1,1.1,4.5v8a9.4,9.4,0,0,1-1.1,4.5,7.4,7.4,0,0,1-3.2,3.1,9.9,9.9,0,0,1-4.7,1.1A10.5,10.5,0,0,1,61,642Zm8.3-3.8a5.1,5.1,0,0,0,1.3-3.7v-8.2a4.8,4.8,0,0,0-1.3-3.6,4.5,4.5,0,0,0-3.6-1.4,4.5,4.5,0,0,0-3.5,1.4,4.9,4.9,0,0,0-1.4,3.6v8.2a5.1,5.1,0,0,0,1.4,3.7,4.8,4.8,0,0,0,3.5,1.3A4.8,4.8,0,0,0,69.3,638.2Z"/><path class="cls-7" d="M83.3,642a7.3,7.3,0,0,1-3.1-2.9,8.1,8.1,0,0,1-1.2-4.4V618.5c0-.2.1-.3.2-.3s.1-.2.3-.2h3.2l.3.2c.1,0,.1.1.1.3v16.3a4.9,4.9,0,0,0,1.3,3.4,5.4,5.4,0,0,0,7,0,4.9,4.9,0,0,0,1.3-3.4V618.5c0-.2,0-.3.1-.3l.3-.2h3.2l.3.2c.1,0,.1.1.1.3v16.2a8.9,8.9,0,0,1-1,4.4,8.2,8.2,0,0,1-3.2,2.9,9.5,9.5,0,0,1-4.6,1A9.7,9.7,0,0,1,83.3,642Z"/><path class="cls-7" d="M115,642.4l-4.6-10.2h-4.5c-.1,0-.1.1-.1.2v10c0,.1-.1.2-.2.3s-.1.1-.3.1h-3.5a.4.4,0,0,1-.1-.3V618.5c0-.2,0-.3.1-.3l.3-.2h9.7a7.9,7.9,0,0,1,3.8.9,6.5,6.5,0,0,1,2.6,2.6,7.5,7.5,0,0,1,.9,3.7,7.2,7.2,0,0,1-1.2,4.2,7.3,7.3,0,0,1-3.5,2.4h-.1c-.1.1-.1.1,0,.2l4.9,10.2a.3.3,0,0,1,.1.2c0,.2-.1.3-.4.3h-3.4A.5.5,0,0,1,115,642.4Zm-9.2-20.7v7.1c0,.1,0,.1.1.1h5.3a3.7,3.7,0,0,0,2.8-1,3.3,3.3,0,0,0,1-2.6,3.6,3.6,0,0,0-1-2.7,3.7,3.7,0,0,0-2.8-1h-5.3C105.8,621.6,105.8,621.6,105.8,621.7Z"/><path class="cls-7" d="M37.5,676.4a.4.4,0,0,1-.1-.3V652.3c0-.2,0-.3.1-.3l.3-.2H41l.3.2c.1,0,.2.1.2.3v20.5c0,.1,0,.2.1.2H53.4c.2,0,.3,0,.3.1s.2.2.2.3v2.7c0,.1-.1.2-.2.3s-.1.1-.3.1H37.5Z"/><path class="cls-7" d="M61,675.8a7.2,7.2,0,0,1-3.2-3,10.1,10.1,0,0,1-1.1-4.6v-8a9.4,9.4,0,0,1,1.1-4.5,8,8,0,0,1,3.2-3.1,9.7,9.7,0,0,1,4.6-1,10.6,10.6,0,0,1,4.8,1,7.7,7.7,0,0,1,3.1,3.1,8.4,8.4,0,0,1,1.1,4.5v8a9,9,0,0,1-1.1,4.6,7.5,7.5,0,0,1-3.1,3,10.6,10.6,0,0,1-4.8,1.1A9.8,9.8,0,0,1,61,675.8Zm8.2-3.8a5.1,5.1,0,0,0,1.3-3.7v-8.2a4.8,4.8,0,0,0-1.3-3.6,4.5,4.5,0,0,0-3.6-1.4,4.5,4.5,0,0,0-3.5,1.4,4.8,4.8,0,0,0-1.3,3.6v8.2a5.1,5.1,0,0,0,1.3,3.7,4.8,4.8,0,0,0,3.5,1.3A4.8,4.8,0,0,0,69.2,672Z"/><path class="cls-7" d="M82.8,675.8a6.9,6.9,0,0,1-3.1-3,7.8,7.8,0,0,1-1.1-4.4v-8.5a8,8,0,0,1,1.1-4.4,7.3,7.3,0,0,1,3.1-2.9,9.7,9.7,0,0,1,4.6-1,9.5,9.5,0,0,1,4.6,1,7.1,7.1,0,0,1,3.1,2.8,6.6,6.6,0,0,1,1.1,3.9v.3c0,.2,0,.2-.1.3l-.3.2H92.6l-.3-.2c-.1-.1-.1-.1-.1-.3h0a4.4,4.4,0,0,0-1.3-3.2,5,5,0,0,0-3.5-1.2,4.5,4.5,0,0,0-4.7,4.7v8.8a4.2,4.2,0,0,0,1.4,3.4,4.8,4.8,0,0,0,3.5,1.3,4.9,4.9,0,0,0,3.3-1.1,3.9,3.9,0,0,0,1.3-3.1v-2.2c0-.1-.1-.1-.2-.1H87.6l-.3-.2c0-.1-.1-.1-.1-.3v-2.6c0-.1.1-.2.1-.3h8.8a.4.4,0,0,1,.1.3v4.5a8.2,8.2,0,0,1-2.4,6.3,8.5,8.5,0,0,1-6.4,2.3A9.7,9.7,0,0,1,82.8,675.8Z"/><path class="cls-7" d="M104.5,675.8a7.7,7.7,0,0,1-3.2-3,10.1,10.1,0,0,1-1.1-4.6v-8a9.4,9.4,0,0,1,1.1-4.5,8,8,0,0,1,3.2-3.1,9.9,9.9,0,0,1,4.7-1,10.4,10.4,0,0,1,4.7,1,7.7,7.7,0,0,1,3.1,3.1,8.4,8.4,0,0,1,1.2,4.5v8a9,9,0,0,1-1.2,4.6,7.5,7.5,0,0,1-3.1,3,10.5,10.5,0,0,1-4.7,1.1A9.9,9.9,0,0,1,104.5,675.8Zm8.2-3.8a5.1,5.1,0,0,0,1.4-3.7v-8.2a4.9,4.9,0,0,0-1.4-3.6,4.5,4.5,0,0,0-3.5-1.4,4.5,4.5,0,0,0-3.6,1.4,4.8,4.8,0,0,0-1.3,3.6v8.2a5.1,5.1,0,0,0,1.3,3.7,4.8,4.8,0,0,0,3.6,1.3A4.8,4.8,0,0,0,112.7,672Z"/><path d="M172.3,689.1l2.3-18.7q.2-.3.3-.3h2.3v.2l-2,16.5h9.3c.1,0,.2.1.2.3l-.2,1.8c0,.1-.2.2-.3.2H172.6C172.4,689.3,172.3,689.2,172.3,689.1Z"/><path d="M189.1,688.1a5.6,5.6,0,0,1-1.5-4.1v-1l.8-6.6a7.8,7.8,0,0,1,1.3-3.4,5.8,5.8,0,0,1,2.6-2.3,6.7,6.7,0,0,1,3.5-.8,6.1,6.1,0,0,1,4.3,1.5,5.4,5.4,0,0,1,1.6,4,2.5,2.5,0,0,1-.1,1l-.8,6.6a6.6,6.6,0,0,1-1.2,3.4,8.5,8.5,0,0,1-2.6,2.4,8.6,8.6,0,0,1-3.6.8A6.1,6.1,0,0,1,189.1,688.1Zm7.7-2a4.8,4.8,0,0,0,1.5-3l.8-6.7v-.7a3.7,3.7,0,0,0-.9-2.6,4.3,4.3,0,0,0-5.7.2,4.8,4.8,0,0,0-1.5,3.1l-.8,6.7a2.3,2.3,0,0,0-.1.7,3,3,0,0,0,1,2.5,3.3,3.3,0,0,0,2.6,1A4.5,4.5,0,0,0,196.8,686.1Z"/><path d="M214.3,689.1l-2.7-8.2h-4.1l-1,8.2a.1.1,0,0,1-.1.1h-2.2c-.2,0-.2-.1-.2-.2l2.3-18.7a.3.3,0,0,1,.3-.3h7.1a4.3,4.3,0,0,1,4.8,4.6,3.4,3.4,0,0,1-.1.9,6.1,6.1,0,0,1-1.3,3.2,5.8,5.8,0,0,1-3,1.8v.2l2.9,8.2h0c0,.2,0,.2-.2.2h-2.1C214.4,689.3,214.3,689.3,214.3,689.1Zm-5.7-16.6-.8,6.1c0,.1,0,.1.1.1h4.4a3.4,3.4,0,0,0,2.6-1,3.5,3.5,0,0,0,1-2.6,2.6,2.6,0,0,0-.8-2,2.4,2.4,0,0,0-2-.7h-4.4C208.6,672.4,208.6,672.4,208.6,672.5Z"/><path d="M234.5,672.4H225c-.1,0-.1,0-.1.1l-.7,5.9c0,.1,0,.1.1.1h6.5c.1,0,.2.1.2.3l-.2,1.7a.3.3,0,0,1-.3.3H224c-.1,0-.1,0-.1.1l-.8,6c0,.1,0,.1.1.1h9.5c.2,0,.2.1.2.3l-.2,1.8a.1.1,0,0,1-.1.1H220.5a.2.2,0,0,1-.2-.2l2.3-18.7a.3.3,0,0,1,.3-.3H235v.2l-.2,1.7Q234.7,672.4,234.5,672.4Z"/><path d="M251,670.1h2c.2,0,.3.1.2.3l-2.3,18.7c0,.1-.1.2-.3.2h-2c-.2,0-.2-.1-.2-.2l1.7-14.1h0c-.1-.1-.1,0-.1,0l-4.6,6-.3.2h-1l-.3-.2-3.1-5.9h-.2l-1.7,14.1a.1.1,0,0,1-.1.1h-2.2c-.2,0-.3-.1-.3-.2l2.3-18.7q.1-.3.3-.3h2.4l3.8,7.3h.1l5.5-7.3Z"/><path d="M260.7,689.1l2.3-18.7a.3.3,0,0,1,.3-.3h2.2v.2l-2.3,18.7a.1.1,0,0,1-.1.1h-2.2C260.7,689.3,260.7,689.2,260.7,689.1Z"/><path d="M280.8,671.3a4.6,4.6,0,0,1,1.3,3.5,3.2,3.2,0,0,1-.1.8,5.7,5.7,0,0,1-2,4,6,6,0,0,1-4.2,1.5h-4.7a.1.1,0,0,0-.1.1l-1,7.9c0,.1-.1.2-.3.2h-2c-.2,0-.3-.1-.2-.2l2.3-18.8c0-.2.1-.2.3-.2h7.2A5.1,5.1,0,0,1,280.8,671.3Zm-2.3,6.6a3.6,3.6,0,0,0,1-2.7,2.5,2.5,0,0,0-.8-2.1,2.9,2.9,0,0,0-2.1-.8h-4.4a.1.1,0,0,0-.1.1l-.8,6.5h4.5A3.7,3.7,0,0,0,278.5,677.9Z"/><path d="M284.7,688.3a4,4,0,0,1-1.6-3.4v-1.5c0-.1.1-.1.1-.2h2.4v1.2a2.4,2.4,0,0,0,1.1,2.1,5,5,0,0,0,2.9.8,4.5,4.5,0,0,0,3-.9,3,3,0,0,0,1.1-2.4,2.1,2.1,0,0,0-.9-1.7,17.3,17.3,0,0,0-3.2-1.7l-2.8-1.3a5.7,5.7,0,0,1-1.6-1.5,3.2,3.2,0,0,1-.7-2.2,5.4,5.4,0,0,1,.9-3.1,4.7,4.7,0,0,1,2.4-1.9,7.5,7.5,0,0,1,3.5-.7,6.3,6.3,0,0,1,4.3,1.3,4,4,0,0,1,1.6,3.4v1.3a.3.3,0,0,1-.3.3h-2c-.1,0-.2-.1-.2-.3v-.4a.7.7,0,0,0,.1-.5,2.6,2.6,0,0,0-1-2,4.1,4.1,0,0,0-2.8-.9,3.9,3.9,0,0,0-2.8.9,2.6,2.6,0,0,0-1,2.3,1.6,1.6,0,0,0,.4,1.2,4,4,0,0,0,1.2,1l2.5,1.1a17.1,17.1,0,0,1,2.7,1.3,5,5,0,0,1,1.7,1.5,3.2,3.2,0,0,1,.7,2.2v.7a5.5,5.5,0,0,1-2.2,3.8,7.7,7.7,0,0,1-4.9,1.5A7.5,7.5,0,0,1,284.7,688.3Z"/><path d="M301.2,688.1a5.3,5.3,0,0,1-1.6-3.9c0-.2.1-.5.1-1l1.6-12.8a.3.3,0,0,1,.3-.3h2c.2,0,.3.1.2.3l-1.6,12.9v.6a3,3,0,0,0,1,2.4,3.2,3.2,0,0,0,2.5,1,4.9,4.9,0,0,0,3.1-1.1,4.4,4.4,0,0,0,1.4-2.9l1.6-12.9a.3.3,0,0,1,.3-.3h2a.3.3,0,0,1,.3.3l-1.6,12.8a8.1,8.1,0,0,1-1.2,3.3,7.2,7.2,0,0,1-2.6,2.3,7.8,7.8,0,0,1-3.5.8A6.1,6.1,0,0,1,301.2,688.1Z"/><path d="M331,670.1h2c.2,0,.3.1.2.3L331,689.1l-.3.2h-2.1c-.2,0-.2-.1-.2-.2l1.7-14.1h0c-.1-.1-.1,0-.1,0l-4.5,6-.4.2h-1l-.3-.2-3.1-5.9a.1.1,0,0,0-.1-.1.1.1,0,0,1-.1.1l-1.7,14.1a.1.1,0,0,1-.1.1h-2.2c-.2,0-.3-.1-.3-.2l2.4-18.7a.3.3,0,0,1,.3-.3h2.3l3.8,7.3h.1l5.6-7.3C330.7,670.1,330.9,670.1,331,670.1Z"/><path d="M340.7,689.1l2.3-18.7a.3.3,0,0,1,.3-.3h6.4a6,6,0,0,1,4,1.2,4.4,4.4,0,0,1,1.5,3.5,2.8,2.8,0,0,1-.1.8l-1,8.2a5.8,5.8,0,0,1-2.1,4,7.1,7.1,0,0,1-4.6,1.5h-6.5C340.7,689.3,340.7,689.2,340.7,689.1Zm2.9-2.1h4.2a3.7,3.7,0,0,0,2.5-.9,4.3,4.3,0,0,0,1.3-2.7l.9-7.4v-.7a3.2,3.2,0,0,0-.7-2.2,3.3,3.3,0,0,0-2.3-.7h-4.1c-.1,0-.1,0-.1.1l-1.8,14.4C343.5,687,343.5,687,343.6,687Z"/><path d="M358.9,688.1a5.3,5.3,0,0,1-1.6-4.1v-1l.8-6.6a7.8,7.8,0,0,1,1.3-3.4,5.8,5.8,0,0,1,2.6-2.3,6.7,6.7,0,0,1,3.5-.8,6.1,6.1,0,0,1,4.3,1.5,5.1,5.1,0,0,1,1.6,4,2.5,2.5,0,0,1-.1,1l-.8,6.6a6.6,6.6,0,0,1-1.2,3.4,8.5,8.5,0,0,1-2.6,2.4,8.6,8.6,0,0,1-3.6.8A5.7,5.7,0,0,1,358.9,688.1Zm7.6-2a4.8,4.8,0,0,0,1.5-3l.8-6.7v-.7a3.7,3.7,0,0,0-.9-2.6,4.1,4.1,0,0,0-2.7-1,4.2,4.2,0,0,0-3,1.2,5.4,5.4,0,0,0-1.5,3.1l-.8,6.7a2.3,2.3,0,0,0-.1.7,3.4,3.4,0,0,0,1,2.5,3.3,3.3,0,0,0,2.6,1A4.5,4.5,0,0,0,366.5,686.1Z"/><path d="M373.7,689.1l2.3-18.7a.3.3,0,0,1,.3-.3h2.2v.2l-2,16.5c0,.1,0,.1.1.1h9.2c.2,0,.2.1.2.3l-.2,1.8c0,.1-.1.2-.3.2H373.9C373.7,689.3,373.7,689.2,373.7,689.1Z"/><path d="M390.5,688.1a5.3,5.3,0,0,1-1.6-4.1,2.8,2.8,0,0,1,.1-1l.7-6.6A7.8,7.8,0,0,1,391,673a6.4,6.4,0,0,1,2.6-2.3,6.9,6.9,0,0,1,3.5-.8,5.9,5.9,0,0,1,4.3,1.5,5.1,5.1,0,0,1,1.6,4,2.5,2.5,0,0,1-.1,1l-.8,6.6a6.6,6.6,0,0,1-1.2,3.4,7.5,7.5,0,0,1-2.6,2.4,8.6,8.6,0,0,1-3.6.8A5.7,5.7,0,0,1,390.5,688.1Zm7.6-2a4.8,4.8,0,0,0,1.5-3l.8-6.7v-.7a3.7,3.7,0,0,0-.9-2.6,3.8,3.8,0,0,0-2.6-1,4.5,4.5,0,0,0-3.1,1.2,5.4,5.4,0,0,0-1.5,3.1l-.8,6.7v.7a3.3,3.3,0,0,0,.9,2.5,3.4,3.4,0,0,0,2.6,1A4.3,4.3,0,0,0,398.1,686.1Z"/><path d="M415.6,689.1l-2.7-8.2a.1.1,0,0,0-.1-.1H409a.1.1,0,0,0-.1.1l-1.1,8.2h-2.3a.2.2,0,0,1-.2-.2l2.3-18.7a.3.3,0,0,1,.3-.3h7.2a4.7,4.7,0,0,1,3.4,1.2,4.5,4.5,0,0,1,1.3,3.4,3.4,3.4,0,0,1-.1.9,6.1,6.1,0,0,1-1.3,3.2,5.9,5.9,0,0,1-2.9,1.8c-.1,0-.1.1-.1.2l2.8,8.2h.1c0,.2-.1.2-.3.2h-2.1C415.8,689.3,415.7,689.3,415.6,689.1Zm-5.7-16.6-.8,6.1a.1.1,0,0,0,.1.1h4.5a3.3,3.3,0,0,0,2.5-1,3.5,3.5,0,0,0,1-2.6,2.6,2.6,0,0,0-.7-2,2.7,2.7,0,0,0-2-.7H410C409.9,672.4,409.9,672.4,409.9,672.5Z"/><path d="M428.2,688.3a4,4,0,0,1-1.6-3.4v-1.5c0-.1.1-.1.1-.2h2.4v1.2a2.6,2.6,0,0,0,1.1,2.1,5,5,0,0,0,2.9.8,4.5,4.5,0,0,0,3-.9,2.8,2.8,0,0,0,1.1-2.4,2.1,2.1,0,0,0-.9-1.7,17.3,17.3,0,0,0-3.2-1.7l-2.8-1.3a5.7,5.7,0,0,1-1.6-1.5,3.2,3.2,0,0,1-.7-2.2,5.4,5.4,0,0,1,.9-3.1,4.7,4.7,0,0,1,2.4-1.9,7.5,7.5,0,0,1,3.5-.7,6.3,6.3,0,0,1,4.3,1.3,4.1,4.1,0,0,1,1.7,3.4c0,.2-.1.4-.1.7v.6a.3.3,0,0,1-.3.3h-2c-.1,0-.2-.1-.2-.3v-.4a.7.7,0,0,0,.1-.5,2.6,2.6,0,0,0-1-2,4.8,4.8,0,0,0-5.6,0,2.6,2.6,0,0,0-1,2.3,1.6,1.6,0,0,0,.4,1.2,4,4,0,0,0,1.2,1l2.5,1.1a17.1,17.1,0,0,1,2.7,1.3,5,5,0,0,1,1.7,1.5,3.2,3.2,0,0,1,.7,2.2v.7a5.5,5.5,0,0,1-2.2,3.8,7.7,7.7,0,0,1-4.9,1.5A7.5,7.5,0,0,1,428.2,688.3Z"/><path d="M442.7,689.1l2.3-18.7a.3.3,0,0,1,.3-.3h2.2v.2l-2.3,18.7a.1.1,0,0,1-.1.1h-2.2C442.7,689.3,442.7,689.2,442.7,689.1Z"/><path d="M464,670.4l-.2,1.7c0,.1,0,.2-.1.2s-.1.1-.2.1h-5.1c-.1,0-.1,0-.1.1l-2,16.6-.3.2h-2.1c-.2,0-.2-.1-.2-.2l2-16.6c0-.1,0-.1-.1-.1h-4.8a.3.3,0,0,1-.3-.3l.2-1.7q.2-.3.3-.3h12.8C464,670.1,464.1,670.2,464,670.4Z"/><path d="M481.4,689.3c-.1-.1-.1-.1-.1-.2l-.6-3.2c0-.1,0-.1-.1-.1h-7.5a.1.1,0,0,0-.1.1l-1.3,3.2a.4.4,0,0,1-.4.2H469c-.1,0-.1-.1,0-.2l8.1-18.7a.5.5,0,0,1,.4-.2h2.8c0,.1.1.1.1.2L484,689h0a.2.2,0,0,1-.2.2h-2.4Zm-7.4-5.6h6.3l-1.8-10.2a.1.1,0,0,0-.2,0l-4.4,10.2A.1.1,0,0,0,474,683.7Z"/><path d="M501.8,670.1h2a.3.3,0,0,1,.3.3l-2.3,18.7-.3.2h-2.1c-.2,0-.2-.1-.2-.2l1.7-14.1h0c0-.1-.1,0-.1,0l-4.5,6-.4.2h-1l-.3-.2-3.1-5.9a.1.1,0,0,0-.1-.1.1.1,0,0,1-.1.1l-1.7,14.1a.1.1,0,0,1-.1.1h-2.2c-.2,0-.2-.1-.2-.2l2.3-18.7a.3.3,0,0,1,.3-.3H492l3.8,7.3h.1l5.6-7.3Z"/><path d="M520.3,672.4h-9.4c-.1,0-.1,0-.1.1l-.8,5.9a.1.1,0,0,0,.1.1h6.5a.3.3,0,0,1,.3.3l-.3,1.7a.3.3,0,0,1-.3.3h-6.5a.1.1,0,0,0-.1.1l-.7,6c0,.1,0,.1.1.1h9.4a.3.3,0,0,1,.3.3l-.3,1.8H506.4c-.2,0-.3-.1-.3-.2l2.4-18.7a.3.3,0,0,1,.3-.3h11.8c.1,0,.2,0,.2.1s.1.1.1.2l-.3,1.7A.3.3,0,0,1,520.3,672.4Z"/><path d="M536.5,670.4l-.2,1.7c0,.1,0,.2-.1.2s-.1.1-.2.1h-5.1c-.1,0-.1,0-.1.1l-2.1,16.6c0,.1-.1.2-.3.2h-2c-.2,0-.3-.1-.2-.2l2-16.6c0-.1,0-.1-.1-.1h-4.9c-.1,0-.2-.1-.2-.3l.2-1.7q.1-.3.3-.3h12.8C536.5,670.1,536.6,670.2,536.5,670.4Z"/><path d="M535.3,691.6c-.1,0-.1-.1,0-.2l1.8-6.1a.3.3,0,0,1,.3-.3h2v.2l-2.4,6.1c0,.1,0,.2-.1.2s-.1.1-.2.1h-1.2C535.4,691.7,535.3,691.7,535.3,691.6Z"/><path d="M550.3,688.1a5.3,5.3,0,0,1-1.6-3.9c0-.2.1-.5.1-.9l.9-7.2a6.6,6.6,0,0,1,1.2-3.3,7.6,7.6,0,0,1,2.5-2.2,8.1,8.1,0,0,1,3.5-.7,6,6,0,0,1,4.3,1.4,4.9,4.9,0,0,1,1.5,3.8v.8h0q-.2.3-.3.3h-2.1c-.1,0-.2-.1-.2-.3h0v-.6a3.2,3.2,0,0,0-.9-2.4,3.5,3.5,0,0,0-2.5-.9,4.4,4.4,0,0,0-3,1.1,4.8,4.8,0,0,0-1.5,2.8l-.9,7.4v.5a3.3,3.3,0,0,0,.9,2.5,3.6,3.6,0,0,0,2.6.9,4.4,4.4,0,0,0,3-1.1,4.2,4.2,0,0,0,1.4-2.8h0c0-.2.1-.2.3-.2h2c.2,0,.3.1.2.2a6.3,6.3,0,0,1-1.2,3.3,6.4,6.4,0,0,1-2.5,2.1,7.8,7.8,0,0,1-3.5.8A5.7,5.7,0,0,1,550.3,688.1Z"/><path d="M566.5,688.1A5.6,5.6,0,0,1,565,684v-1l.8-6.6a7.8,7.8,0,0,1,1.3-3.4,5.8,5.8,0,0,1,2.6-2.3,6.7,6.7,0,0,1,3.5-.8,6.1,6.1,0,0,1,4.3,1.5,5.4,5.4,0,0,1,1.6,4c0,.5-.1.8-.1,1l-.8,6.6a7.7,7.7,0,0,1-1.2,3.4,8.5,8.5,0,0,1-2.6,2.4,8.6,8.6,0,0,1-3.6.8A6.1,6.1,0,0,1,566.5,688.1Zm7.7-2a4.8,4.8,0,0,0,1.5-3l.7-6.7a2.3,2.3,0,0,0,.1-.7,3.4,3.4,0,0,0-1-2.6,3.6,3.6,0,0,0-2.6-1,4.1,4.1,0,0,0-3,1.2,4.4,4.4,0,0,0-1.5,3.1l-.8,6.7a2.3,2.3,0,0,0-.1.7,3,3,0,0,0,1,2.5,3.3,3.3,0,0,0,2.6,1A4.5,4.5,0,0,0,574.2,686.1Z"/><path d="M594.7,670.2H597c.1,0,.2.1.2.3l-2.3,18.7c0,.1-.1.2-.3.2h-2c-.1,0-.2,0-.2-.2l-6.7-14h0a.1.1,0,0,0-.1.1l-1.7,14a.1.1,0,0,1-.1.1h-2.2c-.2,0-.3-.1-.3-.2l2.4-18.7a.3.3,0,0,1,.3-.3h1.9c.2,0,.3,0,.3.2l6.6,14a.1.1,0,0,0,.1.1h0l1.8-13.9Z"/><path d="M600.5,688.3a4,4,0,0,1-1.6-3.4v-1.5c0-.1.1-.1.1-.2h2.4v1.2a2.6,2.6,0,0,0,1.1,2.1,5.1,5.1,0,0,0,3,.8,4.5,4.5,0,0,0,3-.9,3,3,0,0,0,1-2.4,2.1,2.1,0,0,0-.9-1.7,17.3,17.3,0,0,0-3.2-1.7,17.2,17.2,0,0,1-2.7-1.3,5,5,0,0,1-1.7-1.5,3.8,3.8,0,0,1-.7-2.2,5.4,5.4,0,0,1,.9-3.1,5.7,5.7,0,0,1,2.4-1.9,7.8,7.8,0,0,1,3.5-.7,6.8,6.8,0,0,1,4.4,1.3,4.3,4.3,0,0,1,1.6,3.4,2,2,0,0,1-.1.7v.6q-.2.3-.3.3h-2a.3.3,0,0,1-.3-.3V675a2.3,2.3,0,0,0-1-2,4.8,4.8,0,0,0-5.6,0,2.6,2.6,0,0,0-1,2.3,1.6,1.6,0,0,0,.4,1.2,3.4,3.4,0,0,0,1.3,1l2.4,1.1a17.1,17.1,0,0,1,2.7,1.3,6.5,6.5,0,0,1,1.8,1.5,3.8,3.8,0,0,1,.6,2.2v.7a5.5,5.5,0,0,1-2.2,3.8,7.7,7.7,0,0,1-4.9,1.5A7.5,7.5,0,0,1,600.5,688.3Z"/><path d="M629.2,672.4h-9.5c-.1,0-.1,0-.1.1l-.8,5.9c0,.1.1.1.2.1h6.4a.3.3,0,0,1,.3.3l-.2,1.7q-.2.3-.3.3h-6.5c-.1,0-.2,0-.2.1l-.7,6c0,.1,0,.1.1.1h9.5c.2,0,.2.1.2.3l-.2,1.8H615.2a.2.2,0,0,1-.2-.2l2.3-18.7a.3.3,0,0,1,.3-.3h11.8c.1,0,.2,0,.2.1s.1.1.1.2l-.2,1.7Z"/><path d="M632.7,688.1a5,5,0,0,1-1.6-3.9v-.9l.9-7.2a9.3,9.3,0,0,1,1.2-3.3,8,8,0,0,1,2.6-2.2,7.8,7.8,0,0,1,3.5-.7,5.6,5.6,0,0,1,4.2,1.4,4.6,4.6,0,0,1,1.6,3.8,3.2,3.2,0,0,1-.1.8h0a.3.3,0,0,1-.3.3h-2a.3.3,0,0,1-.3-.3h0a1.5,1.5,0,0,0,.1-.6,3,3,0,0,0-1-2.4,3.3,3.3,0,0,0-2.5-.9,4.4,4.4,0,0,0-3,1.1,4.2,4.2,0,0,0-1.4,2.8l-.9,7.4a4.3,4.3,0,0,0-.1.5,3.4,3.4,0,0,0,1,2.5,3.6,3.6,0,0,0,2.6.9,4.4,4.4,0,0,0,2.9-1.1,4.8,4.8,0,0,0,1.5-2.8h0c0-.2.1-.2.3-.2h2c.2,0,.2.1.2.2a8.7,8.7,0,0,1-1.2,3.3,7.2,7.2,0,0,1-2.5,2.1,8.5,8.5,0,0,1-3.5.8A5.7,5.7,0,0,1,632.7,688.1Z"/><path d="M661.3,670.4l-.2,1.7c0,.1,0,.2-.1.2h-5.3c-.1,0-.1,0-.1.1l-2.1,16.6c0,.1-.1.2-.3.2h-2c-.2,0-.3-.1-.2-.2l2-16.6c0-.1,0-.1-.1-.1H648c-.1,0-.2-.1-.2-.3l.2-1.7a.3.3,0,0,1,.3-.3h12.8C661.3,670.1,661.3,670.2,661.3,670.4Z"/><path d="M676.4,672.4h-9.5c-.1,0-.1,0-.1.1l-.7,5.9c0,.1,0,.1.1.1h6.5c.1,0,.2.1.2.3l-.2,1.7a.3.3,0,0,1-.3.3h-6.5c-.1,0-.1,0-.1.1l-.8,6c0,.1,0,.1.1.1h9.5c.2,0,.2.1.2.3l-.2,1.8a.1.1,0,0,1-.1.1H662.4a.2.2,0,0,1-.2-.2l2.3-18.7a.3.3,0,0,1,.3-.3h12.1v.2l-.2,1.7Q676.6,672.4,676.4,672.4Z"/><path d="M692.6,670.4l-.3,1.7v.2h-5.4a.1.1,0,0,0-.1.1l-2,16.6-.3.2h-2.1a.2.2,0,0,1-.2-.2l2.1-16.6a.1.1,0,0,0-.1-.1h-4.9a.3.3,0,0,1-.3-.3l.3-1.7a.3.3,0,0,1,.3-.3h12.7A.3.3,0,0,1,692.6,670.4Z"/><path d="M695.5,688.1a5.3,5.3,0,0,1-1.6-3.9c0-.2.1-.5.1-1l1.6-12.8a.3.3,0,0,1,.3-.3h2c.2,0,.3.1.2.3l-1.6,12.9v.6a3,3,0,0,0,1,2.4,3.2,3.2,0,0,0,2.5,1,4.9,4.9,0,0,0,3.1-1.1,4.4,4.4,0,0,0,1.4-2.9l1.6-12.9a.3.3,0,0,1,.3-.3h2a.3.3,0,0,1,.3.3l-1.6,12.8a8.1,8.1,0,0,1-1.2,3.3,7.2,7.2,0,0,1-2.6,2.3,8.2,8.2,0,0,1-3.5.8A6.1,6.1,0,0,1,695.5,688.1Z"/><path d="M720.9,689.1l-2.7-8.2h-4.1l-1,8.2a.1.1,0,0,1-.1.1h-2.2c-.2,0-.3-.1-.3-.2l2.4-18.7a.3.3,0,0,1,.3-.3h7.1a4.3,4.3,0,0,1,4.8,4.6c0,.2-.1.5-.1.9a6.1,6.1,0,0,1-1.3,3.2,5.8,5.8,0,0,1-3,1.8v.2l2.9,8.2h0c0,.2-.1.2-.2.2h-2.1C721,689.3,720.9,689.3,720.9,689.1Zm-5.7-16.6-.8,6.1c0,.1,0,.1.1.1h4.4a3.4,3.4,0,0,0,2.6-1,4,4,0,0,0,1-2.6,2.6,2.6,0,0,0-.8-2,2.6,2.6,0,0,0-2-.7h-4.4C715.2,672.4,715.2,672.4,715.2,672.5Z"/><path d="M727.2,688.9a1.4,1.4,0,0,1-.5-1.1,2,2,0,0,1,.6-1.4,1.8,1.8,0,0,1,1.4-.6,2.1,2.1,0,0,1,1.1.4,2.1,2.1,0,0,1,.4,1.2,2,2,0,0,1-.6,1.4,2.1,2.1,0,0,1-1.3.5A1.2,1.2,0,0,1,727.2,688.9Z"/></svg>