<svg id="Layer_1" data-name="Layer 1" xmlns="http://www.w3.org/2000/svg" viewBox="0 0 800 800"><defs><style>.cls-1{fill:#ebebeb;}.cls-2{fill:#919191;}.cls-3,.cls-4,.cls-5{fill:none;stroke:#919191;stroke-miterlimit:10;}.cls-4{stroke-dasharray:12.32 12.32;}.cls-5{stroke-dasharray:12.43 12.43;}.cls-6{fill:#83be4e;}.cls-7{fill:#f1f2f2;}.cls-8{fill:#fff;}</style></defs><rect class="cls-1" width="800" height="800"/><path class="cls-2" d="M234.1,302.3v31.8H230V302.3Z"/><path class="cls-2" d="M241.6,317.4c0-2.3-.1-4.3-.2-6.2h3.7l.2,3.8h.1a8.7,8.7,0,0,1,7.6-4.3c3.2,0,8.1,1.9,8.1,9.8v13.6h-4.2V320.9c0-3.7-1.4-6.7-5.3-6.7a5.9,5.9,0,0,0-5.6,4.2,6.5,6.5,0,0,0-.2,2v13.7h-4.2Z"/><path class="cls-2" d="M267.3,329.9a10.8,10.8,0,0,0,5.5,1.6c3,0,4.4-1.5,4.4-3.4s-1.2-3.1-4.3-4.2-6-3.7-6-6.5,3-6.7,7.9-6.7a12.1,12.1,0,0,1,5.6,1.4l-1,3.1a8.7,8.7,0,0,0-4.7-1.4c-2.5,0-3.8,1.5-3.8,3.2s1.3,2.7,4.3,3.8,6,3.5,6,6.9-3.1,6.9-8.5,6.9a12.8,12.8,0,0,1-6.5-1.6Z"/><path class="cls-2" d="M288.9,323.4c.1,5.7,3.7,8,7.8,8a14.8,14.8,0,0,0,6.4-1.2l.7,3a20,20,0,0,1-7.6,1.4c-7.1,0-11.3-4.6-11.3-11.5s4.1-12.4,10.7-12.4,9.5,6.6,9.5,10.8a7.8,7.8,0,0,1-.2,1.9Zm12.2-2.9c0-2.7-1.1-6.8-5.8-6.8s-6,3.9-6.4,6.8Z"/><path class="cls-2" d="M310.2,318.4c0-2.7,0-5-.1-7.2h3.6v4.5h.2c1.1-3,3.6-5,6.4-5l1.1.2v3.9l-1.4-.2c-2.9,0-5,2.3-5.6,5.4a11.5,11.5,0,0,0-.1,1.9v12.2h-4.2Z"/><path class="cls-2" d="M331.8,304.7v6.5h6v3.2h-6v12.4c0,2.8.9,4.4,3.2,4.4a7,7,0,0,0,2.4-.3l.2,3.1a8.9,8.9,0,0,1-3.7.6,5.5,5.5,0,0,1-4.5-1.8c-1.2-1.2-1.6-3.2-1.6-5.9V314.4h-3.6v-3.2h3.6v-5.4Z"/><path class="cls-2" d="M354,311.2l5,13.6c.6,1.5,1.1,3.3,1.5,4.6h.1c.4-1.3.9-3.1,1.5-4.7l4.5-13.5H371l-6.2,16.4c-3,7.8-5.1,11.8-7.9,14.3a11.4,11.4,0,0,1-5.1,2.7l-1-3.5a11.5,11.5,0,0,0,3.6-2.1,12.6,12.6,0,0,0,3.5-4.6,2.2,2.2,0,0,0,.3-1,3.6,3.6,0,0,0-.3-1.1l-8.4-21.1Z"/><path class="cls-2" d="M395,322.5c0,8.5-5.9,12.1-11.4,12.1s-11-4.5-11-11.7,5.1-12.2,11.4-12.2S395,315.5,395,322.5Zm-18.1.2c0,5,2.8,8.8,6.9,8.8s7-3.7,7-8.9-2-8.8-6.9-8.8S376.9,318.4,376.9,322.7Z"/><path class="cls-2" d="M419.4,327.9c0,2.3.1,4.4.2,6.2h-3.7l-.2-3.7h-.1a8.7,8.7,0,0,1-7.6,4.2c-3.6,0-7.9-1.9-7.9-10V311.2h4.2v12.7c0,4.4,1.3,7.3,5.1,7.3a6,6,0,0,0,5.5-3.8,7.1,7.1,0,0,0,.3-2.1V311.2h4.2Z"/><path class="cls-2" d="M426.3,318.4c0-2.7,0-5-.2-7.2h3.7v4.5h.2a6.9,6.9,0,0,1,6.3-5l1.2.2v3.9l-1.4-.2c-2.9,0-5,2.3-5.6,5.4a11.1,11.1,0,0,0-.2,1.9v12.2h-4.1Z"/><path class="cls-2" d="M456.4,304.8a2.5,2.5,0,0,1-2.6,2.6,2.5,2.5,0,0,1-2.5-2.6,2.6,2.6,0,0,1,2.6-2.6A2.5,2.5,0,0,1,456.4,304.8Zm-4.6,29.3V311.2H456v22.9Z"/><path class="cls-2" d="M462.9,317.4c0-2.3-.1-4.3-.2-6.2h3.6l.2,3.7h.1a8,8,0,0,1,7.2-4.2,6.8,6.8,0,0,1,6.5,4.6h.1a9.5,9.5,0,0,1,2.5-3,8.2,8.2,0,0,1,5.1-1.6c3,0,7.5,2,7.5,10v13.4h-4V321.2c0-4.4-1.7-7.1-5-7.1a5.4,5.4,0,0,0-4.9,3.8,6.5,6.5,0,0,0-.4,2.1v14.1h-4V320.4c0-3.6-1.6-6.3-4.8-6.3a5.6,5.6,0,0,0-5.1,4.2,4.5,4.5,0,0,0-.4,2v13.8h-4Z"/><path class="cls-2" d="M515,334.1l-.4-2.9h-.1a8.6,8.6,0,0,1-7,3.4c-4.6,0-7-3.2-7-6.5,0-5.6,4.9-8.6,13.7-8.5v-.5c0-1.9-.5-5.3-5.2-5.3a11.6,11.6,0,0,0-5.9,1.7l-1-2.7a13.9,13.9,0,0,1,7.6-2.1c7,0,8.7,4.8,8.7,9.4v8.5a44.4,44.4,0,0,0,.3,5.5Zm-.7-11.7c-4.5,0-9.7.8-9.7,5.2a3.7,3.7,0,0,0,4,4,5.7,5.7,0,0,0,5.5-3.9,5.9,5.9,0,0,0,.2-1.3Z"/><path class="cls-2" d="M544.8,311.2c-.1,1.7-.2,3.5-.2,6.3v13.3c0,5.3-1,8.5-3.3,10.5s-5.4,2.7-8.3,2.7a15,15,0,0,1-7.6-1.9l1-3.2a12.8,12.8,0,0,0,6.8,1.8c4.2,0,7.3-2.2,7.3-7.9v-2.6h-.1a8,8,0,0,1-7.2,3.8c-5.7,0-9.8-4.8-9.8-11.1s5.1-12.2,10.3-12.2a7.7,7.7,0,0,1,7.2,4h.1v-3.5Zm-4.3,9.1a6.3,6.3,0,0,0-6.1-6.3c-3.9,0-6.8,3.3-6.8,8.6s2.3,8.3,6.8,8.3a6.1,6.1,0,0,0,5.8-4.3,8.3,8.3,0,0,0,.3-2.2Z"/><path class="cls-2" d="M553.8,323.4c.1,5.7,3.7,8,7.9,8a14.6,14.6,0,0,0,6.3-1.2l.7,3a20,20,0,0,1-7.6,1.4c-7,0-11.3-4.6-11.3-11.5s4.1-12.4,10.8-12.4,9.4,6.6,9.4,10.8c0,.9-.1,1.5-.1,1.9Zm12.2-2.9c.1-2.7-1.1-6.8-5.8-6.8s-6,3.9-6.3,6.8Z"/><polyline class="cls-3" points="633.9 404.2 633.9 410.2 627.9 410.2"/><line class="cls-4" x1="615.6" y1="410.2" x2="178.3" y2="410.2"/><polyline class="cls-3" points="172.1 410.2 166.1 410.2 166.1 404.2"/><line class="cls-5" x1="166.1" y1="391.8" x2="166.1" y2="248.8"/><polyline class="cls-3" points="166.1 242.6 166.1 236.6 172.1 236.6"/><line class="cls-4" x1="184.4" y1="236.6" x2="621.7" y2="236.6"/><polyline class="cls-3" points="627.9 236.6 633.9 236.6 633.9 242.6"/><line class="cls-5" x1="633.9" y1="255" x2="633.9" y2="398"/><polygon class="cls-6" points="711.4 640.4 672.4 640.4 132.9 640.4 94 640.4 52.2 693.6 94 746.9 132.9 746.9 672.4 746.9 711.4 746.9 753.2 693.6 711.4 640.4"/><polygon class="cls-6" points="32.2 746.9 38.7 746.9 129.4 746.9 136 746.9 143 737.9 136 729 129.4 729 38.7 729 32.2 729 25.2 737.9 32.2 746.9"/><polygon class="cls-6" points="5.8 713.7 11.2 713.7 27.6 713.7 33 713.7 38.8 706.3 33 698.9 27.6 698.9 11.2 698.9 5.8 698.9 0 706.3 5.8 713.7"/><polygon class="cls-6" points="708.7 658 715.1 658 734.7 658 741.2 658 748.1 649.2 741.2 640.4 734.7 640.4 715.1 640.4 708.7 640.4 701.7 649.2 708.7 658"/><polygon class="cls-6" points="740.9 684.9 746.3 684.9 752.6 684.9 758 684.9 763.8 677.5 758 670.1 752.6 670.1 746.3 670.1 740.9 670.1 735.1 677.5 740.9 684.9"/><polygon class="cls-6" points="61.1 666.8 66.5 666.8 72.9 666.8 78.3 666.8 84.1 659.4 78.3 652 72.9 652 66.5 652 61.1 652 55.4 659.4 61.1 666.8"/><polygon class="cls-6" points="767 731.4 772.4 731.4 788.8 731.4 794.2 731.4 800 724 794.2 716.6 788.8 716.6 772.4 716.6 767 716.6 761.2 724 767 731.4"/><polygon class="cls-6" points="784.5 686.2 778.7 693.6 784.5 701 790.3 693.6 784.5 686.2"/><polygon class="cls-6" points="780.6 662.5 777.6 666.3 780.6 670.1 783.6 666.3 780.6 662.5"/><polygon class="cls-6" points="757.1 701 754.1 704.8 757.1 708.7 760.1 704.8 757.1 701"/><polygon class="cls-6" points="44.5 672.2 41.5 676.1 44.5 679.9 47.6 676.1 44.5 672.2"/><polygon class="cls-6" points="56.9 716.4 53.9 720.2 56.9 724.1 60 720.2 56.9 716.4"/><polygon class="cls-6" points="751.3 651.5 745.5 658.9 751.3 666.3 757.1 658.9 751.3 651.5"/><polygon class="cls-6" points="19.4 668.7 13.6 676.1 19.4 683.5 25.2 676.1 19.4 668.7"/><polygon class="cls-6" points="44.5 637.3 38.8 644.7 44.5 652 50.3 644.7 44.5 637.3"/><polygon class="cls-6" points="743.7 732.1 737.9 739.5 743.7 746.9 749.5 739.5 743.7 732.1"/><polygon class="cls-7" points="523.7 729 501.3 761.1 259.2 761.1 281.6 729 523.7 729"/><polygon points="678 729 655.5 761.1 320.7 761.1 343.1 729 678 729"/><path class="cls-8" d="M346,750.4l1.2-10.2c0-.1.1-.1.2-.1h1.2l-1.1,9.1h5.1c.1,0,.1.1.1.2v.9a.2.2,0,0,1-.2.2h-6.3C346,750.6,346,750.5,346,750.4Z"/><path class="cls-8" d="M355.1,749.9a3.3,3.3,0,0,1-.8-2.2v-.6l.4-3.6a4.8,4.8,0,0,1,.7-1.8,4.3,4.3,0,0,1,1.4-1.3,4.6,4.6,0,0,1,2-.5,3,3,0,0,1,2.3.9,2.8,2.8,0,0,1,.9,2.2.7.7,0,0,1-.1.5l-.4,3.6a4.4,4.4,0,0,1-.7,1.9,3.3,3.3,0,0,1-1.4,1.2,4.1,4.1,0,0,1-1.9.5A3.6,3.6,0,0,1,355.1,749.9Zm4.2-1.1a3,3,0,0,0,.8-1.6l.4-3.7a.8.8,0,0,0,.1-.4,1.8,1.8,0,0,0-.6-1.4,2,2,0,0,0-1.4-.5,2.3,2.3,0,0,0-1.6.6,2.8,2.8,0,0,0-.9,1.7l-.4,3.7v.3a1.6,1.6,0,0,0,.5,1.4,1.7,1.7,0,0,0,1.4.6A2.6,2.6,0,0,0,359.3,748.8Z"/><path class="cls-8" d="M368.8,750.5l-1.4-4.5a.1.1,0,0,0-.1-.1h-2.1l-.6,4.4h0a.1.1,0,0,0-.1.1h-1.2a.3.3,0,0,1-.1-.2l1.3-10.2c0-.1,0-.1.1-.1h3.9a2.4,2.4,0,0,1,1.9.7,2.1,2.1,0,0,1,.7,1.8v.5a3.3,3.3,0,0,1-.7,1.7,3.9,3.9,0,0,1-1.6,1c-.1,0-.1,0-.1.1l1.6,4.5h0a.3.3,0,0,1-.1.2h-1.4Zm-3.1-9.1-.4,3.3h2.5a1.9,1.9,0,0,0,1.9-2,1.4,1.4,0,0,0-1.5-1.5h-2.4C365.7,741.3,365.7,741.3,365.7,741.4Z"/><path class="cls-8" d="M379.9,741.3h-5.2a.1.1,0,0,0-.1.1l-.4,3.2a.1.1,0,0,0,.1.1H378l-.2,1c0,.1,0,.1-.1.1h-3.6l-.4,3.3h5.2c.1,0,.1.1.1.2v.9c0,.1,0,.1-.1.1a.1.1,0,0,1-.1.1h-6.4a.2.2,0,0,1-.2-.2l1.3-10.2a.1.1,0,0,1,.1-.1h6.6v1Z"/><path class="cls-8" d="M388.8,740.1H390c.1,0,.1,0,.1.1l-1.3,10.2c0,.1,0,.2-.1.2h-1.1a.2.2,0,0,1-.2-.2l1-7.7h-.1l-2.5,3.3h-.9l-1.7-3.3h-.1l-.9,7.6h0a.1.1,0,0,0-.1.1h-1.2a.3.3,0,0,1-.1-.2l1.3-10.2c0-.1,0-.1.1-.1h1.1c.1,0,.2,0,.2.1l2.1,3.9h.1l3-3.9A.1.1,0,0,1,388.8,740.1Z"/><path class="cls-8" d="M394.1,750.4l1.3-10.2a.1.1,0,0,1,.1-.1h1.3l-1.3,10.2h0a.1.1,0,0,0-.1.1h-1.1A.2.2,0,0,1,394.1,750.4Z"/><path class="cls-8" d="M405.1,740.8a2.1,2.1,0,0,1,.7,1.8v.5a3.2,3.2,0,0,1-3.4,3h-2.6l-.6,4.2c0,.1,0,.2-.1.2H398a.2.2,0,0,1-.2-.2l1.3-10.2a.1.1,0,0,1,.1-.1h4A2.5,2.5,0,0,1,405.1,740.8Zm-1.3,3.5a1.8,1.8,0,0,0,.6-1.5,1.5,1.5,0,0,0-.4-1.1,1.6,1.6,0,0,0-1.2-.4h-2.4a.1.1,0,0,0-.1.1l-.4,3.5h2.5A1.8,1.8,0,0,0,403.8,744.3Z"/><path class="cls-8" d="M407.2,750a2.3,2.3,0,0,1-.9-1.9,1,1,0,0,0,.1-.3v-.5h1.4v.6a1.4,1.4,0,0,0,.6,1.1,2.5,2.5,0,0,0,1.6.4,2.3,2.3,0,0,0,1.7-.5,1.3,1.3,0,0,0,.5-1.2,1.1,1.1,0,0,0-.5-1l-1.7-.9-1.5-.7a2.4,2.4,0,0,1-.9-.8,2.1,2.1,0,0,1-.4-1.2,3.1,3.1,0,0,1,.5-1.7,2.8,2.8,0,0,1,1.3-1.1,5.8,5.8,0,0,1,1.9-.4,3.6,3.6,0,0,1,2.4.8,2.1,2.1,0,0,1,.9,1.8.6.6,0,0,1-.1.4v.5h-1.1a.2.2,0,0,1-.2-.2v-.4a1.4,1.4,0,0,0-.6-1.2,2.1,2.1,0,0,0-1.5-.4,2.2,2.2,0,0,0-1.5.4,1.6,1.6,0,0,0-.6,1.3.9.9,0,0,0,.3.7,1,1,0,0,0,.6.5l1.4.6a6,6,0,0,1,1.4.7,3.9,3.9,0,0,1,1,.8,2.8,2.8,0,0,1,.4,1.3.5.5,0,0,1-.1.3,2.8,2.8,0,0,1-1.2,2.1,4.2,4.2,0,0,1-2.6.8A3.7,3.7,0,0,1,407.2,750Z"/><path class="cls-8" d="M416.2,749.9a3.1,3.1,0,0,1-.8-2.2v-.5l.9-7c0-.1,0-.1.1-.1h1.1c.1,0,.2,0,.2.1l-.9,7.1v.3a1.5,1.5,0,0,0,.5,1.3,1.6,1.6,0,0,0,1.4.5,2.5,2.5,0,0,0,1.7-.6,2.8,2.8,0,0,0,.8-1.5l.8-7.1c0-.1.1-.1.2-.1h1.1c.1,0,.1,0,.1.1l-.9,7a3.8,3.8,0,0,1-2,3.1,5.8,5.8,0,0,1-1.9.4A3.6,3.6,0,0,1,416.2,749.9Z"/><path class="cls-8" d="M432.5,740.1h1.1c.1,0,.1,0,.1.1l-1.2,10.2c-.1.1-.1.2-.2.2h-1.1c-.1,0-.2-.1-.1-.2l.9-7.7h-.1l-2.4,3.3h-1l-1.7-3.3h0l-1,7.6h-1.2a.2.2,0,0,1-.2-.2l1.3-10.2c0-.1.1-.1.2-.1H427a.1.1,0,0,1,.1.1l2.1,3.9h.1l3-3.9C432.3,740.1,432.4,740.1,432.5,740.1Z"/><path class="cls-8" d="M437.7,750.4l1.3-10.2c0-.1.1-.1.2-.1h3.5a3.2,3.2,0,0,1,2.2.7,2.2,2.2,0,0,1,.8,1.8,1.1,1.1,0,0,1-.1.5l-.5,4.5a2.8,2.8,0,0,1-1.2,2.1,3.5,3.5,0,0,1-2.5.9h-3.5A.2.2,0,0,1,437.7,750.4Zm1.6-1.1h2.3a2.2,2.2,0,0,0,1.4-.5,2.3,2.3,0,0,0,.7-1.4l.5-4.1v-.4a1.6,1.6,0,0,0-.4-1.2,2.1,2.1,0,0,0-1.2-.4h-2.3l-1,7.9Z"/><path class="cls-8" d="M447.7,749.9a2.9,2.9,0,0,1-.9-2.2v-.6l.5-3.6a3.6,3.6,0,0,1,.7-1.8,2.9,2.9,0,0,1,1.4-1.3,3.8,3.8,0,0,1,1.9-.5,2.9,2.9,0,0,1,2.3.9,2.8,2.8,0,0,1,.9,2.2v.5l-.5,3.6a6,6,0,0,1-.6,1.9,4.4,4.4,0,0,1-1.5,1.2,3.8,3.8,0,0,1-1.9.5A3.2,3.2,0,0,1,447.7,749.9Zm4.1-1.1a2.5,2.5,0,0,0,.8-1.6l.5-3.7v-.4a1.7,1.7,0,0,0-1.9-1.9,2.4,2.4,0,0,0-1.7.6,2.7,2.7,0,0,0-.8,1.7l-.5,3.7v.3a2,2,0,0,0,.5,1.4,1.8,1.8,0,0,0,1.4.6A2.4,2.4,0,0,0,451.8,748.8Z"/><path class="cls-8" d="M455.7,750.4l1.3-10.2c0-.1.1-.1.2-.1h1.2l-1.1,9.1h5.1c.1,0,.1.1.1.2v.9c-.1.1-.1.2-.2.2h-6.3A.2.2,0,0,1,455.7,750.4Z"/><path class="cls-8" d="M464.9,749.9a2.9,2.9,0,0,1-.9-2.2,3.5,3.5,0,0,1,.1-.6l.4-3.6a3.6,3.6,0,0,1,.7-1.8,3.5,3.5,0,0,1,1.4-1.3,4.1,4.1,0,0,1,1.9-.5,3.2,3.2,0,0,1,2.4.9,3.1,3.1,0,0,1,.8,2.2v.5l-.4,3.6a4.4,4.4,0,0,1-.7,1.9,4.1,4.1,0,0,1-1.4,1.2,4.6,4.6,0,0,1-2,.5A3.6,3.6,0,0,1,464.9,749.9Zm4.2-1.1a3,3,0,0,0,.8-1.6l.4-3.7v-.4a1.7,1.7,0,0,0-.5-1.4,2,2,0,0,0-1.4-.5,2.5,2.5,0,0,0-1.7.6,3.4,3.4,0,0,0-.8,1.7l-.4,3.7a.5.5,0,0,0-.1.3,2.1,2.1,0,0,0,2,2A2.8,2.8,0,0,0,469.1,748.8Z"/><path class="cls-8" d="M478.6,750.5l-1.5-4.5H475a.1.1,0,0,0-.1.1l-.5,4.4c0,.1,0,.1-.1.1a.1.1,0,0,1-.1.1h-1.1c-.1,0-.1-.1-.1-.2l1.2-10.2h4.1a2.5,2.5,0,0,1,1.9.7,2.1,2.1,0,0,1,.7,1.8v.5a3.4,3.4,0,0,1-.8,1.7,2.9,2.9,0,0,1-1.6,1h0l1.5,4.5h.1a.2.2,0,0,1-.2.2h-1.3Zm-3.1-9.1-.4,3.3h2.5a1.6,1.6,0,0,0,1.3-.6,1.7,1.7,0,0,0,.6-1.4,1.4,1.4,0,0,0-.4-1.1,1.5,1.5,0,0,0-1.1-.4h-2.4C475.5,741.3,475.5,741.3,475.5,741.4Z"/><path class="cls-8" d="M485.5,750a2.3,2.3,0,0,1-.9-1.9v-.8H486v.6a1.6,1.6,0,0,0,.5,1.1,2.9,2.9,0,0,0,1.7.4,2.1,2.1,0,0,0,1.6-.5,1.4,1.4,0,0,0,.6-1.2,1.4,1.4,0,0,0-.5-1l-1.8-.9-1.5-.7-.9-.8a2.1,2.1,0,0,1-.3-1.2,3.1,3.1,0,0,1,.4-1.7,4.5,4.5,0,0,1,1.3-1.1,5.9,5.9,0,0,1,2-.4,3.2,3.2,0,0,1,2.3.8,2.1,2.1,0,0,1,.9,1.8v.7l-.2.2H491c-.1,0-.1-.1-.1-.2v-.4a1.7,1.7,0,0,0-.5-1.2,2.4,2.4,0,0,0-1.5-.4,2.5,2.5,0,0,0-1.6.4,1.9,1.9,0,0,0-.5,1.3.8.8,0,0,0,.2.7,1.8,1.8,0,0,0,.7.5l1.3.6,1.5.7a2.4,2.4,0,0,1,.9.8,2,2,0,0,1,.4,1.3v.3a2.8,2.8,0,0,1-1.2,2.1,4.6,4.6,0,0,1-2.7.8A3.6,3.6,0,0,1,485.5,750Z"/><path class="cls-8" d="M493.4,750.4l1.2-10.2c0-.1.1-.1.2-.1H496l-1.3,10.2h-1.2C493.4,750.6,493.4,750.5,493.4,750.4Z"/><path class="cls-8" d="M505,740.2v1h-3l-1.1,9a.2.2,0,0,1-.2.2h-1.1c-.1,0-.1-.1-.1-.2l1.1-9c0-.1,0-.1-.1-.1h-2.8l.2-1c0-.1,0-.1.1-.1h7C505,740.1,505,740.1,505,740.2Z"/><path class="cls-8" d="M514.5,750.5c-.1,0-.1,0-.1-.1l-.3-1.7H510a.1.1,0,0,0-.1.1l-.7,1.7c-.1.1-.1.2-.2.2h-1.2a.1.1,0,0,1-.1-.1h0l4.4-10.2h1.8l2,10.2h0c0,.1,0,.2-.1.2h-1.2C514.5,750.6,514.5,750.6,514.5,750.5Zm-4.1-3h3.5l-1-5.5c0-.1,0-.1-.1-.1h0l-2.4,5.5Z"/><path class="cls-8" d="M525.6,740.1h1.1c.1,0,.1,0,.1.1l-1.2,10.2a.2.2,0,0,1-.2.2h-1.1c-.1,0-.1-.1-.1-.2l.9-7.7h0l-2.5,3.3h-.9l-1.7-3.3h-.1l-.9,7.6a.1.1,0,0,1-.1.1h-1.2c-.1,0-.1-.1-.1-.2l1.2-10.2c0-.1.1-.1.2-.1h1.1c.1,0,.1,0,.1.1l2.1,3.9h.1l3-3.9Z"/><path class="cls-8" d="M535.7,741.3h-5.2l-.4,3.2h3.7v1c0,.1-.1.1-.2.1H530c-.1,0-.1,0-.1.1l-.4,3.3h5.2c.1,0,.2.1.1.2v.9h-6.6c-.1,0-.1-.1-.1-.2l1.2-10.2c0-.1.1-.1.2-.1H536v1Z"/><path class="cls-8" d="M544.5,740.2v1h-2.9c-.1,0-.1,0-.1.1l-1.1,9a.2.2,0,0,1-.2.2H539c-.1,0-.1-.1-.1-.2l1.1-9c0-.1,0-.1-.1-.1h-2.7v-1a.1.1,0,0,1,.1-.1h7C544.5,740.1,544.6,740.1,544.5,740.2Z"/><path class="cls-8" d="M543.8,751.8h0l1-3.3.2-.2h1.1l-1.3,3.3h-.1a.1.1,0,0,1-.1.1h-.7A.1.1,0,0,0,543.8,751.8Z"/><path class="cls-8" d="M552,749.9a2.9,2.9,0,0,1-.8-2.1v-.6l.5-3.8a3.6,3.6,0,0,1,.7-1.8,3.3,3.3,0,0,1,1.4-1.2,3.8,3.8,0,0,1,1.9-.5,3.6,3.6,0,0,1,2.3.8,2.9,2.9,0,0,1,.8,2.1v.5h0c0,.1-.1.1-.2.1h-1.1c-.1,0-.1,0-.1-.1h0V743a1.7,1.7,0,0,0-.5-1.3,2.2,2.2,0,0,0-1.4-.5,2.3,2.3,0,0,0-1.6.6,2.2,2.2,0,0,0-.8,1.5l-.5,4v.3a1.7,1.7,0,0,0,.5,1.3,1.6,1.6,0,0,0,1.4.5,2.8,2.8,0,0,0,1.6-.5,2.3,2.3,0,0,0,.8-1.6h0a.2.2,0,0,1,.2-.2h1.1c.1,0,.1.1.1.2a3.6,3.6,0,0,1-.7,1.7,3.3,3.3,0,0,1-1.4,1.2,3.8,3.8,0,0,1-1.9.4A3.6,3.6,0,0,1,552,749.9Z"/><path class="cls-8" d="M560.9,749.9a2.9,2.9,0,0,1-.9-2.2c0-.3,0-.5.1-.6l.4-3.6a3.6,3.6,0,0,1,.7-1.8,2.9,2.9,0,0,1,1.4-1.3,4.1,4.1,0,0,1,1.9-.5,3.2,3.2,0,0,1,2.4.9,3.1,3.1,0,0,1,.8,2.2v.5l-.4,3.6a4.4,4.4,0,0,1-.7,1.9,5.3,5.3,0,0,1-1.4,1.2,4.6,4.6,0,0,1-2,.5A3.4,3.4,0,0,1,560.9,749.9Zm4.1-1.1a2.6,2.6,0,0,0,.9-1.6l.4-3.7v-.4a1.7,1.7,0,0,0-.5-1.4,2,2,0,0,0-1.4-.5,2.5,2.5,0,0,0-1.7.6,3.4,3.4,0,0,0-.8,1.7l-.4,3.7a.5.5,0,0,0-.1.3,2.1,2.1,0,0,0,2,2A2.4,2.4,0,0,0,565,748.8Z"/><path class="cls-8" d="M576.3,740.1h1.2c.1,0,.1,0,.1.1l-1.2,10.2c-.1.1-.1.2-.2.2H575l-3.6-7.7h-.1l-.9,7.6a248791080957.6,248791080957.6,0,0,0-.2.2h-1.1c-.1,0-.1-.1-.1-.2l1.2-10.2c0-.1.1-.1.2-.1h1.1a.1.1,0,0,1,.1.1l3.6,7.6c0,.1,0,.1.1.1h0l.9-7.6A.1.1,0,0,1,576.3,740.1Z"/><path class="cls-8" d="M579.4,750a2.3,2.3,0,0,1-.9-1.9.5.5,0,0,1,.1-.3v-.5H580v.6a1.4,1.4,0,0,0,.6,1.1,2.5,2.5,0,0,0,1.6.4,2.3,2.3,0,0,0,1.7-.5,1.7,1.7,0,0,0,.5-1.2,1.1,1.1,0,0,0-.5-1l-1.7-.9-1.5-.7a2.4,2.4,0,0,1-.9-.8,1.6,1.6,0,0,1-.4-1.2,3.1,3.1,0,0,1,.5-1.7,2.8,2.8,0,0,1,1.3-1.1,5.3,5.3,0,0,1,1.9-.4,3.6,3.6,0,0,1,2.4.8,2.1,2.1,0,0,1,.9,1.8.6.6,0,0,1-.1.4v.3a.2.2,0,0,1-.2.2h-1a.2.2,0,0,1-.2-.2V743c.1,0,.1-.1.1-.2a1.4,1.4,0,0,0-.6-1.2,3,3,0,0,0-3,0,1.6,1.6,0,0,0-.6,1.3.9.9,0,0,0,.3.7,1,1,0,0,0,.6.5l1.4.6a6,6,0,0,1,1.4.7,3.9,3.9,0,0,1,1,.8,2.8,2.8,0,0,1,.4,1.3.5.5,0,0,1-.1.3,2.8,2.8,0,0,1-1.2,2.1,4.2,4.2,0,0,1-2.6.8A3.7,3.7,0,0,1,579.4,750Z"/><path class="cls-8" d="M595,741.3h-5.1c-.1,0-.1,0-.1.1l-.4,3.2a.1.1,0,0,0,.1.1h3.7l-.2,1c0,.1,0,.1-.1.1h-3.6l-.5,3.3h5.3c.1,0,.1.1.1.2v.9c0,.1,0,.1-.1.1a.1.1,0,0,1-.1.1h-6.5c-.1,0-.1-.1-.1-.2l1.3-10.2c0-.1,0-.1.1-.1h6.6v1Z"/><path class="cls-8" d="M596.9,749.9a2.9,2.9,0,0,1-.8-2.1v-.6l.5-3.8a3.6,3.6,0,0,1,.7-1.8,3.3,3.3,0,0,1,1.4-1.2,3.8,3.8,0,0,1,1.9-.5,3.6,3.6,0,0,1,2.3.8,2.9,2.9,0,0,1,.8,2.1v.5h0c0,.1-.1.1-.2.1h-1.1c-.1,0-.1,0-.1-.1h0V743a1.7,1.7,0,0,0-.5-1.3,2.2,2.2,0,0,0-1.4-.5,2.3,2.3,0,0,0-1.6.6,2.2,2.2,0,0,0-.8,1.5l-.5,4v.3a1.7,1.7,0,0,0,.5,1.3,1.6,1.6,0,0,0,1.4.5,2.8,2.8,0,0,0,1.6-.5,2.3,2.3,0,0,0,.8-1.6h0a.2.2,0,0,1,.2-.2h1.1c.1,0,.1.1.1.2a3.6,3.6,0,0,1-.7,1.7,3.3,3.3,0,0,1-1.4,1.2,3.8,3.8,0,0,1-1.9.4A3.6,3.6,0,0,1,596.9,749.9Z"/><path class="cls-8" d="M612.6,740.2l-.2,1h-2.9a.1.1,0,0,0-.1.1l-1.1,9a.3.3,0,0,1-.1.2H607c-.1,0-.1-.1-.1-.2l1.1-9h-2.8v-1c0-.1.1-.1.2-.1h6.9C612.5,740.1,612.6,740.1,612.6,740.2Z"/><path class="cls-8" d="M620.8,741.3h-5.2l-.4,3.2h3.7v1c0,.1-.1.1-.2.1h-3.5c-.1,0-.1,0-.1.1l-.4,3.3h5.2c.1,0,.1.1.1.2v.9h-6.6a.2.2,0,0,1-.2-.2l1.3-10.2c0-.1.1-.1.2-.1H621a.1.1,0,0,1,.1.1l-.2,1Z"/><path class="cls-8" d="M629.6,740.2v1h-3l-1.1,9c-.1.1-.1.2-.2.2h-1.1c-.1,0-.1-.1-.1-.2l1.1-9c0-.1,0-.1-.1-.1h-2.8l.2-1c0-.1,0-.1.1-.1h7C629.6,740.1,629.6,740.1,629.6,740.2Z"/><path class="cls-8" d="M631.2,749.9a2.7,2.7,0,0,1-.8-2.2v-.5l.8-7h1.3c.1,0,.2,0,.1.1l-.8,7.1v.3a1.5,1.5,0,0,0,.5,1.3,1.6,1.6,0,0,0,1.4.5,2.3,2.3,0,0,0,1.6-.6,1.9,1.9,0,0,0,.8-1.5l.9-7.1c0-.1.1-.1.2-.1h1.1c.1,0,.1,0,.1.1l-.9,7a4.8,4.8,0,0,1-.6,1.8,4.3,4.3,0,0,1-1.4,1.3,6.5,6.5,0,0,1-2,.4A3.6,3.6,0,0,1,631.2,749.9Z"/><path class="cls-8" d="M645.1,750.5l-1.5-4.5c0-.1,0-.1-.1-.1h-2.1l-.6,4.4h0a.1.1,0,0,0-.1.1h-1.2a.3.3,0,0,1-.1-.2l1.3-10.2c0-.1,0-.1.1-.1h4a2.3,2.3,0,0,1,1.8.7,2.1,2.1,0,0,1,.7,1.8v.5a3.3,3.3,0,0,1-.7,1.7,3.9,3.9,0,0,1-1.6,1c-.1,0-.1,0-.1.1l1.6,4.5h0a.3.3,0,0,1-.1.2h-1.2A.1.1,0,0,1,645.1,750.5Zm-3.2-9.1-.4,3.3H644a1.9,1.9,0,0,0,1.9-2,1.4,1.4,0,0,0-1.5-1.5H642A.1.1,0,0,0,641.9,741.4Z"/><path class="cls-8" d="M648.5,750.3a.5.5,0,0,1-.3-.5.8.8,0,0,1,.4-.8.8.8,0,0,1,.7-.4.9.9,0,0,1,.6.3.8.8,0,0,1,.2.6,1.1,1.1,0,0,1-.3.8.9.9,0,0,1-.7.3A.6.6,0,0,1,648.5,750.3Z"/><path d="M283.3,739.7h2L284,750.2h-.1a.1.1,0,0,1-.1.1h-1.7c-.2,0-.2-.1-.2-.2l1-8.4h-.1l-1.5.4h0a.2.2,0,0,1-.2-.2l.2-1.3c0-.1,0-.2.1-.2l1.7-.8Z"/><path d="M294.3,746.3a1.3,1.3,0,0,1-.1.6,3.8,3.8,0,0,1-.4,1.6,5,5,0,0,1-1.4,1.5,4.6,4.6,0,0,1-2,.5,2.9,2.9,0,0,1-1.9-.6,2.5,2.5,0,0,1-1.1-1.5c0-.2-.1-.5-.1-.9a1.8,1.8,0,0,1,.1-.6l.5-4.6a3.5,3.5,0,0,1,.6-1.4,3.1,3.1,0,0,1,1.3-1,3.9,3.9,0,0,1,1.8-.4,3.2,3.2,0,0,1,2.2.7,2.1,2.1,0,0,1,.8,1.7v.8h-.1a.1.1,0,0,1-.1.1h-1.9a.9.9,0,0,0-.2-.9,1.1,1.1,0,0,0-.8-.3,1.7,1.7,0,0,0-1,.3,1.8,1.8,0,0,0-.4.9l-.2,1.4h.1a2.5,2.5,0,0,1,1.7-.6,2.5,2.5,0,0,1,1.5.5,2,2,0,0,1,1,1.2A3.6,3.6,0,0,1,294.3,746.3Zm-2.2.4c0-.3,0-.6-.1-.7a1,1,0,0,0-1-.6,1.4,1.4,0,0,0-1.2.6,1.5,1.5,0,0,0-.3,1v.9a1.1,1.1,0,0,0,1.1.7,1.3,1.3,0,0,0,1.2-.7A2.4,2.4,0,0,0,292.1,746.7Z"/><path d="M297.7,750a1.1,1.1,0,0,1-.3-.8,1.5,1.5,0,0,1,.4-.9,1.3,1.3,0,0,1,1-.4,1.1,1.1,0,0,1,.8.3,1.4,1.4,0,0,1,.2.7,1.3,1.3,0,0,1-.4,1,1,1,0,0,1-.9.4A1.1,1.1,0,0,1,297.7,750Zm.7-5a1.1,1.1,0,0,1-.3-.8,1.4,1.4,0,0,1,1.3-1.3,1.1,1.1,0,0,1,.8.3.8.8,0,0,1,.3.7,1.8,1.8,0,0,1-.4,1,1.3,1.3,0,0,1-1,.4A.9.9,0,0,1,298.4,745Z"/><path d="M304.7,749.8a2.9,2.9,0,0,1-.9-2.2,1.3,1.3,0,0,1,.1-.6l.5-4a3.5,3.5,0,0,1,1.2-2.5,3.6,3.6,0,0,1,2.7-1,3.2,3.2,0,0,1,2.3.8,2.6,2.6,0,0,1,.9,2.1v.6l-.5,4a4.3,4.3,0,0,1-1.3,2.6,4,4,0,0,1-2.7.9A3.2,3.2,0,0,1,304.7,749.8Zm3.6-1.5a1.7,1.7,0,0,0,.5-1.2l.6-4.2v-.2a1.3,1.3,0,0,0-.4-1,1.2,1.2,0,0,0-.9-.3,1.5,1.5,0,0,0-1.1.4,1.6,1.6,0,0,0-.5,1.1l-.5,4.2a.4.4,0,0,0-.1.3,1.3,1.3,0,0,0,.4,1,1.2,1.2,0,0,0,.9.3A1.5,1.5,0,0,0,308.3,748.3Z"/><path d="M314.7,749.8a2.9,2.9,0,0,1-.9-2.2c0-.2.1-.4.1-.6l.5-4a3.5,3.5,0,0,1,1.2-2.5,3.6,3.6,0,0,1,2.7-1,3.2,3.2,0,0,1,2.3.8,2.6,2.6,0,0,1,.9,2.1v.6l-.5,4a4.3,4.3,0,0,1-1.3,2.6,4,4,0,0,1-2.7.9A3.2,3.2,0,0,1,314.7,749.8Zm3.6-1.5a1.7,1.7,0,0,0,.5-1.2l.6-4.2v-.2a1.3,1.3,0,0,0-.4-1,1.2,1.2,0,0,0-.9-.3,1.5,1.5,0,0,0-1.1.4,1.6,1.6,0,0,0-.5,1.1l-.5,4.2a.4.4,0,0,0-.1.3,1.8,1.8,0,0,0,.4,1,1.2,1.2,0,0,0,.9.3A1.5,1.5,0,0,0,318.3,748.3Z"/><path class="cls-8" d="M135.8,665.9l.4-.2H141c.4,0,.6.2.6.7l-5.5,44.3a.6.6,0,0,1-.7.7h-4.6c-.3,0-.5-.2-.7-.5l-15.7-33.3a.2.2,0,0,0-.2-.2c-.1.1-.1.1-.1.3l-4,33a.8.8,0,0,1-.2.5l-.5.2h-4.8c-.4,0-.6-.2-.6-.7l5.5-44.3c.1-.5.3-.7.7-.7h4.7a.6.6,0,0,1,.6.5l15.7,33.3c0,.2.1.2.2.2s.1-.1.1-.2l4.1-33.1A.6.6,0,0,1,135.8,665.9Z"/><path class="cls-8" d="M186,671.1H163.5c-.1,0-.2.1-.2.3l-1.8,14a.3.3,0,0,0,.3.3h15.4a.5.5,0,0,1,.6.6l-.6,4.2c0,.4-.3.6-.7.6H161.1a.3.3,0,0,0-.3.3L159,705.7c0,.2.1.3.2.3h22.5q.8,0,.6.6l-.6,4.1a.7.7,0,0,1-.1.5l-.6.2H152.9c-.4,0-.6-.2-.6-.7l5.5-44.3c.1-.5.3-.7.7-.7h28.1a.6.6,0,0,1,.5.2c.1.2.2.3.1.5l-.5,4.1A.7.7,0,0,1,186,671.1Z"/><path class="cls-8" d="M205.8,710.9l-6.5-44.5h0a.5.5,0,0,1,.2-.4l.4-.2h5.2a.7.7,0,0,1,.7.6l4.3,32.5c0,.1,0,.1.1.1a.1.1,0,0,0,.1-.1l11.9-32.5a.8.8,0,0,1,.8-.6h4.9a.7.7,0,0,1,.7.6l4.3,32.6c0,.1,0,.1.1.1h.1l12.4-32.6c0-.2.1-.3.3-.4l.5-.2H251c.5,0,.7.3.5.7l-16.8,44.4a.9.9,0,0,1-.8.6H229a.5.5,0,0,1-.6-.6l-4.2-33.7a.1.1,0,0,0-.1-.1c-.1,0-.1,0-.1.1l-12.2,33.7a.7.7,0,0,1-.8.6h-4.6A.6.6,0,0,1,205.8,710.9Z"/><path class="cls-8" d="M261.6,708.9a9.4,9.4,0,0,1-3.9-8.1c0-.3.1-.8.2-1.6l.2-1.9c0-.2.1-.3.2-.5h5.6a.9.9,0,0,1,.1.5l-.2,1.6a5.4,5.4,0,0,0-.1.8,5.8,5.8,0,0,0,2.6,4.9c1.7,1.3,4,1.9,7,1.9s5.5-.7,7.2-2.1a7,7,0,0,0,2.5-5.6,4.9,4.9,0,0,0-2.2-4.1,37.7,37.7,0,0,0-7.6-4l-6.5-3.1a12,12,0,0,1-3.9-3.5,8.4,8.4,0,0,1-1.6-5.3,13.2,13.2,0,0,1,2-7.2,13.4,13.4,0,0,1,5.7-4.8,21.5,21.5,0,0,1,8.3-1.6c4.4,0,7.8,1,10.4,3.1a10.1,10.1,0,0,1,3.8,8.2,13.1,13.1,0,0,1-.1,1.7l-.2,1.3c0,.4-.3.6-.7.6h-4.7a.5.5,0,0,1-.6-.6v-1a2.5,2.5,0,0,0,.1-1,6.2,6.2,0,0,0-2.4-5,10.4,10.4,0,0,0-6.6-1.9,10,10,0,0,0-6.6,2,6.6,6.6,0,0,0-2.4,5.5,4.7,4.7,0,0,0,1,3,10,10,0,0,0,2.9,2.2c1.3.6,3.2,1.5,5.8,2.5s4.8,2.2,6.4,3.1a14.8,14.8,0,0,1,4.2,3.6,9.6,9.6,0,0,1,1.6,5.4c0,.3-.1.9-.1,1.6a13,13,0,0,1-5.3,9c-3,2.3-6.8,3.4-11.6,3.4S264.2,710.9,261.6,708.9Z"/><path class="cls-8" d="M347.1,666a.9.9,0,0,1,.7-.3h10a.6.6,0,0,1,.6.3.8.8,0,0,1,.2.7l-5.4,43.7a.8.8,0,0,1-.3.7.9.9,0,0,1-.7.3h-10a.9.9,0,0,1-.7-.3.8.8,0,0,1-.1-.7l2-16.5c0-.2-.1-.4-.3-.4h-9.8a.4.4,0,0,0-.4.4l-2,16.5c-.1.3-.2.6-.4.7a.9.9,0,0,1-.7.3h-10a.8.8,0,0,1-.7-.3c-.2-.1-.2-.4-.2-.7l5.4-43.7a1.6,1.6,0,0,1,.4-.7.8.8,0,0,1,.7-.3h10a.9.9,0,0,1,.7.3.8.8,0,0,1,.1.7l-1.9,15.9c-.1.3,0,.4.3.4h9.7c.3,0,.4-.1.5-.4l1.9-15.9A1.6,1.6,0,0,1,347.1,666Z"/><path class="cls-8" d="M364.3,711.1a1.2,1.2,0,0,1-.2-.7l5.5-43.7a1,1,0,0,1,1-1h10a.9.9,0,0,1,.7.3.8.8,0,0,1,.1.7l-5.3,43.7c-.1.3-.2.6-.4.7a.9.9,0,0,1-.7.3H365A.9.9,0,0,1,364.3,711.1Z"/><path class="cls-8" d="M392.9,708a14.1,14.1,0,0,1-4.2-10.7,16.1,16.1,0,0,1,.2-2.6l1.5-12.3a19.6,19.6,0,0,1,3.3-9,17.4,17.4,0,0,1,6.8-6.1,20.9,20.9,0,0,1,9.4-2.1,18.1,18.1,0,0,1,8.3,1.8,12.5,12.5,0,0,1,7.4,11.7c0,.4-.1,1-.1,1.8h0a1.6,1.6,0,0,1-.4.7.9.9,0,0,1-.7.3h-10c-.6,0-.9-.2-.8-.6a4.5,4.5,0,0,0-1.1-3.7,4.4,4.4,0,0,0-3.8-1.6,6.1,6.1,0,0,0-4.3,1.7,7.3,7.3,0,0,0-2.1,4.6l-1.6,13.1v.9a5.3,5.3,0,0,0,1.5,3.9,5.2,5.2,0,0,0,3.8,1.5,6,6,0,0,0,4-1.3,5.4,5.4,0,0,0,2-3.7v-.8c.1-.3,0-.4-.3-.4h-5.5l-.7-.2a1.1,1.1,0,0,1-.1-.8l.9-7.8a1.6,1.6,0,0,1,.4-.7.9.9,0,0,1,.7-.3h16.5a.9.9,0,0,1,.7.3.8.8,0,0,1,.1.7l-1.1,8.9a18.7,18.7,0,0,1-3.2,8.7,18.2,18.2,0,0,1-6.8,5.8,20.9,20.9,0,0,1-9.4,2.1C399.4,711.9,395.6,710.6,392.9,708Z"/><path class="cls-8" d="M460.9,666a.7.7,0,0,1,.6-.3h10.1a.9.9,0,0,1,.6.3.8.8,0,0,1,.2.7L467,710.4a.8.8,0,0,1-.3.7,1.1,1.1,0,0,1-.7.3H455.9a.9.9,0,0,1-.6-.3,1.2,1.2,0,0,1-.2-.7l2.1-16.5a.4.4,0,0,0-.4-.4h-9.7a.4.4,0,0,0-.4.4l-2.1,16.5a.8.8,0,0,1-.3.7,1.1,1.1,0,0,1-.8.3h-9.9c-.4,0-.6-.1-.7-.3s-.2-.4-.2-.7l5.4-43.7.3-.7a1.1,1.1,0,0,1,.8-.3h9.9a.8.8,0,0,1,.7.3.8.8,0,0,1,.2.7l-2,15.9c0,.3.1.4.4.4h9.7a.4.4,0,0,0,.4-.4l2-15.9A1,1,0,0,1,460.9,666Z"/><path class="cls-8" d="M478.1,711.1c-.2-.1-.2-.4-.2-.7l5.4-43.7a1.6,1.6,0,0,1,.4-.7.8.8,0,0,1,.7-.3h9.9c.4,0,.6.1.7.3a.8.8,0,0,1,.2.7L491,700.5c0,.3.1.4.3.4h19.6a.6.6,0,0,1,.6.3c.2.1.2.4.2.7l-1,8.5c-.1.3-.2.6-.4.7a1,1,0,0,1-.8.3H478.8A.8.8,0,0,1,478.1,711.1Z"/><path class="cls-8" d="M520.9,711.1a.8.8,0,0,1-.1-.7l5.4-43.7a1,1,0,0,1,1-1h10a.9.9,0,0,1,.7.3,1.4,1.4,0,0,1,.2.7l-5.4,43.7a.8.8,0,0,1-.4.7.8.8,0,0,1-.7.3h-10A.9.9,0,0,1,520.9,711.1Z"/><path class="cls-8" d="M549.5,708c-2.8-2.7-4.1-6.2-4.1-10.7a18.6,18.6,0,0,1,.1-2.6l1.5-12.3a19.6,19.6,0,0,1,3.3-9,17.4,17.4,0,0,1,6.8-6.1,21.1,21.1,0,0,1,9.5-2.1,18,18,0,0,1,8.2,1.8,12.5,12.5,0,0,1,7.4,11.7,13.6,13.6,0,0,1-.1,1.8h0a1.6,1.6,0,0,1-.4.7.9.9,0,0,1-.7.3h-9.9q-.9,0-.9-.6a4.8,4.8,0,0,0-1-3.7,4.7,4.7,0,0,0-3.9-1.6,6.1,6.1,0,0,0-4.3,1.7,7.3,7.3,0,0,0-2.1,4.6l-1.5,13.1a2.2,2.2,0,0,0-.1.9,5.3,5.3,0,0,0,1.5,3.9,5.2,5.2,0,0,0,3.8,1.5,6.3,6.3,0,0,0,4.1-1.3,5.4,5.4,0,0,0,1.9-3.7v-.8c0-.3-.1-.4-.4-.4h-5.5a.8.8,0,0,1-.6-.2,1.1,1.1,0,0,1-.2-.8l1-7.8a.9.9,0,0,1,.3-.7,1.1,1.1,0,0,1,.7-.3h16.5a.8.8,0,0,1,.7.3.8.8,0,0,1,.2.7l-1.1,8.9A18.8,18.8,0,0,1,577,704a17.5,17.5,0,0,1-6.8,5.8,20.6,20.6,0,0,1-9.4,2.1C556,711.9,552.3,710.6,549.5,708Z"/><path class="cls-8" d="M617.5,666a.9.9,0,0,1,.7-.3h10a.6.6,0,0,1,.6.3.8.8,0,0,1,.2.7l-5.4,43.7a.8.8,0,0,1-.3.7.9.9,0,0,1-.7.3h-10a.9.9,0,0,1-.7-.3.8.8,0,0,1-.1-.7l2-16.5c0-.2-.1-.4-.3-.4h-9.8a.4.4,0,0,0-.4.4l-2,16.5c-.1.3-.2.6-.4.7a.9.9,0,0,1-.7.3h-10a.8.8,0,0,1-.7-.3c-.2-.1-.2-.4-.2-.7l5.4-43.7a1.6,1.6,0,0,1,.4-.7.8.8,0,0,1,.7-.3h10a.9.9,0,0,1,.7.3.8.8,0,0,1,.1.7l-1.9,15.9c-.1.3,0,.4.3.4h9.7c.3,0,.4-.1.5-.4l1.9-15.9A1.6,1.6,0,0,1,617.5,666Z"/><path class="cls-8" d="M673.8,666a.8.8,0,0,1,.1.7l-1,8.6a1.1,1.1,0,0,1-.3.7.9.9,0,0,1-.7.3H661.3a.5.5,0,0,0-.5.4l-4.1,33.7a.8.8,0,0,1-.3.7,1.1,1.1,0,0,1-.8.3h-10a.9.9,0,0,1-.7-.3.8.8,0,0,1-.1-.7l4.2-33.7a.4.4,0,0,0-.4-.4H638.4a.9.9,0,0,1-.7-.3c-.2-.1-.2-.4-.2-.7l1.1-8.6a.9.9,0,0,1,.3-.7,1.1,1.1,0,0,1,.8-.3h33.5A.9.9,0,0,1,673.8,666Z"/><path class="cls-8" d="M683,708.5a11.4,11.4,0,0,1-4.2-9.3,15.8,15.8,0,0,1,.1-1.9v-.9c.1-.3.2-.6.4-.7a.9.9,0,0,1,.7-.3h9.8a.8.8,0,0,1,.7.3c.2.1.2.4.2.7v.4a3.6,3.6,0,0,0,1.5,3.2,7.4,7.4,0,0,0,4.8,1.4,4.6,4.6,0,0,0,3.6-1.2,3,3,0,0,0,1.1-2.4,2.1,2.1,0,0,0-1.2-1.9,19.5,19.5,0,0,0-4.2-1.6l-1.7-.6a31.1,31.1,0,0,1-9.3-4.6,10.2,10.2,0,0,1-3.8-8.4,13.6,13.6,0,0,1,2.5-8.1,16.1,16.1,0,0,1,6.6-5.4,21.7,21.7,0,0,1,9.2-2,21,21,0,0,1,8.2,1.6,13.9,13.9,0,0,1,5.7,4.7,12.5,12.5,0,0,1,2,7c0,.3-.1,1-.1,1.8v.6c-.1.3-.2.6-.4.7a.9.9,0,0,1-.7.3h-9.8a.9.9,0,0,1-.7-.3.8.8,0,0,1-.1-.7h0a3.9,3.9,0,0,0-.5-2.4,4.6,4.6,0,0,0-1.9-2,6.7,6.7,0,0,0-3.3-.8,5.4,5.4,0,0,0-3.5,1,2.8,2.8,0,0,0-1.3,2.5,2.9,2.9,0,0,0,1.7,2.5,41.9,41.9,0,0,0,6.6,2.7l4,1.3a13,13,0,0,1,5.8,3.9,9.5,9.5,0,0,1,2.4,6.5,12.3,12.3,0,0,1-.1,1.7,14.9,14.9,0,0,1-6,10.4c-3.5,2.5-7.8,3.7-13,3.7S685.9,710.8,683,708.5Z"/><path d="M131.7,632c-.1,0-.1-.1-.1-.2l1.8-14.9c.1,0,.1-.1.1-.2h2.9a.3.3,0,0,1,.1.2l-1.6,12.4a.1.1,0,0,0,.1.1h7a.3.3,0,0,1,.3.3l-.3,2.1a.3.3,0,0,1-.1.2H131.8A.1.1,0,0,1,131.7,632Z"/><path d="M143.9,632c-.1,0-.1-.1-.1-.2l1.9-14.9a.3.3,0,0,1,.1-.2h2.9v.2l-1.8,14.9a.3.3,0,0,1-.1.2h-2.7C144,632.1,143.9,632.1,143.9,632Z"/><path d="M153.2,631.9,150.6,617h0a.3.3,0,0,1,.1-.2h2.8c.2,0,.3,0,.3.2l1.5,10.7a.1.1,0,0,0,.2,0l4.1-10.7c0-.2.2-.2.3-.2h2.8c.1,0,.1.1,0,.2l-6.3,14.9c0,.1-.1.2-.3.2h-2.7A.2.2,0,0,1,153.2,631.9Z"/><path d="M174.5,619.3h-7.3l-.4,3.5a.1.1,0,0,0,.1.1h4.7a.3.3,0,0,1,.1.2l-.3,2.2a.3.3,0,0,1-.1.2h-4.9l-.4,3.6c0,.1,0,.1.1.1h7c.1,0,.2.1.2.3l-.2,2.1a.3.3,0,0,0-.1.2H162.9c-.1,0-.2,0-.2-.1a.1.1,0,0,1,0-.2l1.8-14.9a.3.3,0,0,1,.1-.2h10.2a.3.3,0,0,1,.1.2l-.3,2.2A.3.3,0,0,1,174.5,619.3Z"/><path d="M188.2,631.9l-2.2-6.6h-3.2a.1.1,0,0,0-.1.1l-.8,6.5h-1.8c-.2,0-.2-.1-.2-.2l1.8-15c.1-.2.1-.2.3-.2h5.7a3.7,3.7,0,0,1,2.8,1,3.3,3.3,0,0,1,1,2.6v.7a4.7,4.7,0,0,1-1.1,2.7,4.2,4.2,0,0,1-2.4,1.4h0l2.3,6.6h0a.2.2,0,0,1-.2.2h-1.7A.2.2,0,0,1,188.2,631.9Zm-4.6-13.3-.6,4.9h3.6a2.7,2.7,0,0,0,2.8-2.9,2.1,2.1,0,0,0-2.2-2.2h-3.5C183.6,618.5,183.6,618.5,183.6,618.6Z"/><path d="M204.3,618.5h-7.5c-.1,0-.1,0-.1.1l-.6,4.7c0,.1,0,.1.1.1h5.2a.2.2,0,0,1,.2.2l-.2,1.4c0,.2-.1.2-.3.2h-5.3l-.6,4.9h7.7c.2,0,.2,0,.2.2l-.2,1.4a995164323831.8,995164323831.8,0,0,1-.2.2h-9.5c-.2,0-.2-.1-.2-.2l1.8-15c0-.2.1-.2.3-.2h9.6c.1.1.1.1.1.2l-.2,1.4C204.6,618.4,204.5,618.5,204.3,618.5Z"/><path d="M216.3,617.7a3.5,3.5,0,0,1,1.1,2.7,2,2,0,0,1-.1.7,4.5,4.5,0,0,1-1.6,3.2,4.9,4.9,0,0,1-3.4,1.2h-3.7a.1.1,0,0,0-.1.1l-.8,6.3a.2.2,0,0,1-.2.2h-1.7a.2.2,0,0,1-.2-.2l1.9-15c0-.2.1-.3.2-.3h5.8A3.8,3.8,0,0,1,216.3,617.7Zm-1.8,5.2a3.1,3.1,0,0,0,.8-2.2,2.3,2.3,0,0,0-.6-1.6,2.4,2.4,0,0,0-1.7-.6h-3.6a.1.1,0,0,0-.1.1l-.6,5.1h3.6A2.9,2.9,0,0,0,214.5,622.9Z"/><path d="M219.9,631.1a4.2,4.2,0,0,1-1.3-3.3,1.9,1.9,0,0,1,.1-.8l.6-5.2a6.3,6.3,0,0,1,1-2.8,5.5,5.5,0,0,1,2.1-1.9,6.4,6.4,0,0,1,2.8-.6,4.5,4.5,0,0,1,3.4,1.2,4.1,4.1,0,0,1,1.3,3.2v.9l-.7,5.2a5.6,5.6,0,0,1-1,2.8,4.6,4.6,0,0,1-2.1,1.8,5.3,5.3,0,0,1-2.8.7A4.7,4.7,0,0,1,219.9,631.1Zm6.1-1.6a3.5,3.5,0,0,0,1.2-2.4l.6-5.4a1.1,1.1,0,0,0,.1-.5,2.7,2.7,0,0,0-2.9-2.9,3,3,0,0,0-2.4,1,3.5,3.5,0,0,0-1.2,2.4l-.7,5.4v.6a2.7,2.7,0,0,0,.7,2,2.9,2.9,0,0,0,2.1.8A3.3,3.3,0,0,0,226,629.5Z"/><path d="M240,631.9l-2.1-6.6h-3.2c-.1,0-.1,0-.1.1l-.8,6.5a995164323831.6,995164323831.6,0,0,0-.2.2h-1.7a.2.2,0,0,1-.2-.2l1.9-15c0-.2.1-.2.2-.2h5.8a3.7,3.7,0,0,1,2.8,1,3.6,3.6,0,0,1,1,2.6,2,2,0,0,1-.1.7,4.6,4.6,0,0,1-1,2.7,4.5,4.5,0,0,1-2.4,1.4h-.1l2.3,6.6h.1a.2.2,0,0,1-.2.2h-1.7Zm-4.5-13.3-.7,4.9a.1.1,0,0,0,.1.1h3.6a2.8,2.8,0,0,0,2-.8,3.2,3.2,0,0,0,.8-2.1,2.1,2.1,0,0,0-2.2-2.2h-3.6Z"/><path d="M256.4,616.9l-.2,1.4h-4.3c-.1,0-.1,0-.1.1l-1.6,13.3-.3.2h-1.6c-.2,0-.2-.1-.2-.2l1.6-13.3c0-.1,0-.1-.1-.1h-3.9a.2.2,0,0,1-.2-.2l.2-1.4c.1-.2.1-.2.3-.2h10.2C256.4,616.7,256.4,616.7,256.4,616.9Z"/><circle cx="118.6" cy="625" r="5.5"/></svg>