<svg id="Layer_1" data-name="Layer 1" xmlns="http://www.w3.org/2000/svg" viewBox="0 0 800 800"><defs><style>.cls-1{fill:#ebebeb;}.cls-2{fill:#919191;}.cls-3,.cls-4,.cls-5{fill:none;stroke:#919191;stroke-miterlimit:10;}.cls-4{stroke-dasharray:12.32 12.32;}.cls-5{stroke-dasharray:12.43 12.43;}.cls-6{fill:#ed1c24;}.cls-7{fill:#fff;}</style></defs><rect class="cls-1" width="800" height="638.14"/><path class="cls-2" d="M234.1,302.3v31.8H230V302.3Z"/><path class="cls-2" d="M241.6,317.4c0-2.3-.1-4.3-.2-6.2h3.7l.2,3.8h.1a8.7,8.7,0,0,1,7.6-4.3c3.2,0,8.1,1.9,8.1,9.8v13.6h-4.2V320.9c0-3.7-1.4-6.7-5.3-6.7a5.9,5.9,0,0,0-5.6,4.2,6.5,6.5,0,0,0-.2,2v13.7h-4.2Z"/><path class="cls-2" d="M267.3,329.9a10.8,10.8,0,0,0,5.5,1.6c3,0,4.4-1.5,4.4-3.4s-1.2-3.1-4.3-4.2-6-3.7-6-6.5,3-6.7,7.9-6.7a12.1,12.1,0,0,1,5.6,1.4l-1,3.1a8.7,8.7,0,0,0-4.7-1.4c-2.5,0-3.8,1.5-3.8,3.2s1.3,2.7,4.3,3.8,6,3.5,6,6.9-3.1,6.9-8.5,6.9a12.8,12.8,0,0,1-6.5-1.6Z"/><path class="cls-2" d="M288.9,323.4c.1,5.7,3.7,8,7.8,8a14.8,14.8,0,0,0,6.4-1.2l.7,3a20,20,0,0,1-7.6,1.4c-7.1,0-11.3-4.6-11.3-11.5s4.1-12.4,10.7-12.4,9.5,6.6,9.5,10.8a7.8,7.8,0,0,1-.2,1.9Zm12.2-2.9c0-2.7-1.1-6.8-5.8-6.8s-6,3.9-6.4,6.8Z"/><path class="cls-2" d="M310.2,318.4c0-2.7,0-5-.1-7.2h3.6v4.5h.2c1.1-3,3.6-5,6.4-5l1.1.2v3.9l-1.4-.2c-2.9,0-5,2.3-5.6,5.4a11.5,11.5,0,0,0-.1,1.9v12.2h-4.2Z"/><path class="cls-2" d="M331.8,304.7v6.5h6v3.2h-6v12.4c0,2.8.9,4.4,3.2,4.4a7,7,0,0,0,2.4-.3l.2,3.1a8.9,8.9,0,0,1-3.7.6,5.5,5.5,0,0,1-4.5-1.8c-1.2-1.2-1.6-3.2-1.6-5.9V314.4h-3.6v-3.2h3.6v-5.4Z"/><path class="cls-2" d="M354,311.2l5,13.6c.6,1.5,1.1,3.3,1.5,4.6h.1c.4-1.3.9-3.1,1.5-4.7l4.5-13.5H371l-6.2,16.4c-3,7.8-5.1,11.8-7.9,14.3a11.4,11.4,0,0,1-5.1,2.7l-1-3.5a11.5,11.5,0,0,0,3.6-2.1,12.6,12.6,0,0,0,3.5-4.6,2.2,2.2,0,0,0,.3-1,3.6,3.6,0,0,0-.3-1.1l-8.4-21.1Z"/><path class="cls-2" d="M395,322.5c0,8.5-5.9,12.1-11.4,12.1s-11-4.5-11-11.7,5.1-12.2,11.4-12.2S395,315.5,395,322.5Zm-18.1.2c0,5,2.8,8.8,6.9,8.8s7-3.7,7-8.9-2-8.8-6.9-8.8S376.9,318.4,376.9,322.7Z"/><path class="cls-2" d="M419.4,327.9c0,2.3.1,4.4.2,6.2h-3.7l-.2-3.7h-.1a8.7,8.7,0,0,1-7.6,4.2c-3.6,0-7.9-1.9-7.9-10V311.2h4.2v12.7c0,4.4,1.3,7.3,5.1,7.3a6,6,0,0,0,5.5-3.8,7.1,7.1,0,0,0,.3-2.1V311.2h4.2Z"/><path class="cls-2" d="M426.3,318.4c0-2.7,0-5-.2-7.2h3.7v4.5h.2a6.9,6.9,0,0,1,6.3-5l1.2.2v3.9l-1.4-.2c-2.9,0-5,2.3-5.6,5.4a11.1,11.1,0,0,0-.2,1.9v12.2h-4.1Z"/><path class="cls-2" d="M456.4,304.8a2.5,2.5,0,0,1-2.6,2.6,2.5,2.5,0,0,1-2.5-2.6,2.6,2.6,0,0,1,2.6-2.6A2.5,2.5,0,0,1,456.4,304.8Zm-4.6,29.3V311.2H456v22.9Z"/><path class="cls-2" d="M462.9,317.4c0-2.3-.1-4.3-.2-6.2h3.6l.2,3.7h.1a8,8,0,0,1,7.2-4.2,6.8,6.8,0,0,1,6.5,4.6h.1a9.5,9.5,0,0,1,2.5-3,8.2,8.2,0,0,1,5.1-1.6c3,0,7.5,2,7.5,10v13.4h-4V321.2c0-4.4-1.7-7.1-5-7.1a5.4,5.4,0,0,0-4.9,3.8,6.5,6.5,0,0,0-.4,2.1v14.1h-4V320.4c0-3.6-1.6-6.3-4.8-6.3a5.6,5.6,0,0,0-5.1,4.2,4.5,4.5,0,0,0-.4,2v13.8h-4Z"/><path class="cls-2" d="M515,334.1l-.4-2.9h-.1a8.6,8.6,0,0,1-7,3.4c-4.6,0-7-3.2-7-6.5,0-5.6,4.9-8.6,13.7-8.5v-.5c0-1.9-.5-5.3-5.2-5.3a11.6,11.6,0,0,0-5.9,1.7l-1-2.7a13.9,13.9,0,0,1,7.6-2.1c7,0,8.7,4.8,8.7,9.4v8.5a44.4,44.4,0,0,0,.3,5.5Zm-.7-11.7c-4.5,0-9.7.8-9.7,5.2a3.7,3.7,0,0,0,4,4,5.7,5.7,0,0,0,5.5-3.9,5.9,5.9,0,0,0,.2-1.3Z"/><path class="cls-2" d="M544.8,311.2c-.1,1.7-.2,3.5-.2,6.3v13.3c0,5.3-1,8.5-3.3,10.5s-5.4,2.7-8.3,2.7a15,15,0,0,1-7.6-1.9l1-3.2a12.8,12.8,0,0,0,6.8,1.8c4.2,0,7.3-2.2,7.3-7.9v-2.6h-.1a8,8,0,0,1-7.2,3.8c-5.7,0-9.8-4.8-9.8-11.1s5.1-12.2,10.3-12.2a7.7,7.7,0,0,1,7.2,4h.1v-3.5Zm-4.3,9.1a6.3,6.3,0,0,0-6.1-6.3c-3.9,0-6.8,3.3-6.8,8.6s2.3,8.3,6.8,8.3a6.1,6.1,0,0,0,5.8-4.3,8.3,8.3,0,0,0,.3-2.2Z"/><path class="cls-2" d="M553.8,323.4c.1,5.7,3.7,8,7.9,8a14.6,14.6,0,0,0,6.3-1.2l.7,3a20,20,0,0,1-7.6,1.4c-7,0-11.3-4.6-11.3-11.5s4.1-12.4,10.8-12.4,9.4,6.6,9.4,10.8c0,.9-.1,1.5-.1,1.9Zm12.2-2.9c.1-2.7-1.1-6.8-5.8-6.8s-6,3.9-6.3,6.8Z"/><polyline class="cls-3" points="633.9 404.2 633.9 410.2 627.9 410.2"/><line class="cls-4" x1="615.6" y1="410.2" x2="178.3" y2="410.2"/><polyline class="cls-3" points="172.1 410.2 166.1 410.2 166.1 404.2"/><line class="cls-5" x1="166.1" y1="391.8" x2="166.1" y2="248.8"/><polyline class="cls-3" points="166.1 242.6 166.1 236.6 172.1 236.6"/><line class="cls-4" x1="184.4" y1="236.6" x2="621.7" y2="236.6"/><polyline class="cls-3" points="627.9 236.6 633.9 236.6 633.9 242.6"/><line class="cls-5" x1="633.9" y1="255" x2="633.9" y2="398"/><path class="cls-6" d="M674.3,753.6H0L41.4,627.1h718L732.3,710C723.7,736.1,700.5,753.6,674.3,753.6Z"/><path class="cls-7" d="M414.8,627.1H43.6L27.2,579.5H356.7a58.4,58.4,0,0,1,55.2,39.4Z"/><path d="M15,710,0,753.6H710.4a64.6,64.6,0,0,0,61-43.6H15Z"/><path class="cls-7" d="M341.8,753.1l9.6-42.6H770.8c-6,25.5-21.8,42.6-39.6,42.6Z"/><path d="M770.2,711c-6.1,24.9-21.6,41.6-39,41.6H342.4l9.4-41.6H770.2m1.2-1H351l-9.8,43.6h390c18.2,0,34.3-17.5,40.2-43.6Z"/><path class="cls-7" d="M97.3,635.3a.9.9,0,0,1,.7-.3h9a.6.6,0,0,1,.6.3.7.7,0,0,1,.2.6l-6.6,53.5a1.1,1.1,0,0,1-.3.7l-.7.2H91.5a1,1,0,0,1-1-.6L74.8,655.9c0-.2-.1-.3-.2-.2s-.2.1-.3.3l-3.9,33.4a2.5,2.5,0,0,1-.4.7l-.6.2h-9l-.7-.2a.9.9,0,0,1-.1-.7l6.5-53.5.4-.6a.9.9,0,0,1,.6-.3h8.7a1.1,1.1,0,0,1,1.1.6l15.6,33.7c.1.2.2.2.3.2s.1-.1.2-.4l4-33.2A.9.9,0,0,1,97.3,635.3Z"/><path class="cls-7" d="M139.5,650a.9.9,0,0,1,.7-.3h9a.6.6,0,0,1,.6.3c.2.2.3.4.2.6l-4.7,38.8a2.5,2.5,0,0,1-.4.7l-.7.2h-9l-.6-.2a1,1,0,0,1-.2-.7l.4-3.4c.1-.2,0-.3-.1-.4l-.3.2a12.1,12.1,0,0,1-10.3,5.2,12.7,12.7,0,0,1-8.6-3.2,14.5,14.5,0,0,1-4.3-8.7,18.7,18.7,0,0,1-.3-3.4c0-1.6.2-3.5.4-5.8a37.8,37.8,0,0,1,2.6-10.1,18.9,18.9,0,0,1,6.3-7.7,16.3,16.3,0,0,1,9.6-3c4.2,0,7,1.5,8.6,4.5q.2.3.3.3l.2-.3.3-3A.9.9,0,0,1,139.5,650Zm-3.4,24.1a39,39,0,0,0,.7-4,27.3,27.3,0,0,0,.3-3.7,11,11,0,0,0-.5-3.3,4.9,4.9,0,0,0-1.8-3.2,4.8,4.8,0,0,0-3.6-1.3,6.7,6.7,0,0,0-4.1,1.3,7.3,7.3,0,0,0-2.7,3.3,20.1,20.1,0,0,0-1.8,6.8,30.1,30.1,0,0,0-.3,3.9,12.6,12.6,0,0,0,.4,2.8,5.5,5.5,0,0,0,5.7,4.7,6.2,6.2,0,0,0,4-1.3,8.5,8.5,0,0,0,2.7-3.4A15.7,15.7,0,0,0,136.1,674.1Z"/><path class="cls-7" d="M210.1,652.1a11.6,11.6,0,0,1,2.9,8.3,10.2,10.2,0,0,1-.2,2.8l-3.2,26.2a1.1,1.1,0,0,1-.3.7l-.7.2h-9l-.6-.2a.9.9,0,0,1-.1-.7l2.8-23.7a5.7,5.7,0,0,0,.1-1.4,6,6,0,0,0-1.4-4.1,4.4,4.4,0,0,0-3.7-1.6,6.6,6.6,0,0,0-4.6,1.9,8.1,8.1,0,0,0-2.3,5.1l-3,23.8a1.1,1.1,0,0,1-.3.7l-.7.2H177l-.7-.2a.9.9,0,0,1-.1-.7l2.8-23.7a5.3,5.3,0,0,0,.1-1.3,6.1,6.1,0,0,0-1.4-4.2,4.8,4.8,0,0,0-3.8-1.6,6.4,6.4,0,0,0-4.3,1.5,7.5,7.5,0,0,0-2.5,4.2L164,689.4a2.5,2.5,0,0,1-.4.7l-.6.2h-9l-.6-.2a1,1,0,0,1-.2-.7l4.8-38.8c0-.2.2-.4.3-.6a.9.9,0,0,1,.7-.3h8.9a.9.9,0,0,1,.7.3.7.7,0,0,1,.1.6l-.3,3.1c0,.2,0,.3.1.3s.2,0,.3-.1a12.5,12.5,0,0,1,10.4-4.8,12.3,12.3,0,0,1,6.5,1.6,9.7,9.7,0,0,1,3.8,4.8c.1.3.3.3.5,0a14.3,14.3,0,0,1,5.2-4.9,14.7,14.7,0,0,1,6.7-1.5A11,11,0,0,1,210.1,652.1Z"/><path class="cls-7" d="M254.3,672.5c-.2.7-.6,1-1.1,1H229.5c-.3,0-.4.1-.4.4a14.6,14.6,0,0,0,.4,3.1c1.1,3,3.6,4.5,7.6,4.5a11,11,0,0,0,8.3-4.1c.4-.6.8-.7,1.2-.2l4.9,5.6a.8.8,0,0,1,.2.7,1.1,1.1,0,0,1-.3.7,20.3,20.3,0,0,1-7.1,5,22.6,22.6,0,0,1-9,1.8,17.6,17.6,0,0,1-10.7-3.1,14.7,14.7,0,0,1-5.6-8.6,22.6,22.6,0,0,1-.6-5.7c0-1.2.1-2.6.2-4a22.8,22.8,0,0,1,2.2-8.4,19.9,19.9,0,0,1,7.3-8.9,18.6,18.6,0,0,1,10.8-3.3c5.2,0,9.1,1.5,11.7,4.6s4.1,7.1,4.2,12.2C254.8,667.5,254.6,669.7,254.3,672.5Zm-23.4-9.2c-.4,1-.7,1.9-.9,2.5s.1.4.3.4h13.3c.3,0,.4-.1.4-.4s-.1-1.3-.2-2.2a5.8,5.8,0,0,0-1.9-3.7,6.5,6.5,0,0,0-4.1-1.3A7.1,7.1,0,0,0,230.9,663.3Z"/><path d="M365.3,742.9l-4-13.6h0c0-.2.1-.2.3-.2h2.1c.2,0,.3,0,.3.2l2.7,10.1c0,.1,0,.1.1.1h0l2.7-10.1c.1-.2.2-.2.3-.2h2c.1,0,.2,0,.3.2l2.7,10.1a.1.1,0,0,1,.1.1h.1l2.7-10.1c.1-.2.2-.2.3-.2h2.2c.1,0,.2,0,.2.1a.1.1,0,0,1,0,.2l-4,13.6q-.1.3-.3.3h-2.2q-.1,0-.3-.3l-2.7-9.4h-.1a.1.1,0,0,1-.1.1l-2.6,9.4a.3.3,0,0,1-.3.3h-2.2Q365.5,743.2,365.3,742.9Z"/><path d="M386,742.9l-4-13.6h0c0-.2.1-.2.3-.2h2.2c.1,0,.2,0,.3.2l2.6,10.1a.1.1,0,0,0,.1.1h.1l2.7-10.1c0-.2.1-.2.3-.2h1.9c.2,0,.3,0,.3.2l2.8,10.1h0a.1.1,0,0,0,.1-.1l2.8-10.1c0-.2.1-.2.3-.2h2.1c.1,0,.2,0,.2.1s.1.1.1.2l-4.1,13.6a.3.3,0,0,1-.3.3h-2.2q-.2,0-.3-.3l-2.7-9.4a.1.1,0,0,0-.1-.1h0l-2.6,9.4q-.1.3-.3.3h-2.2C386.2,743.2,386.1,743.1,386,742.9Z"/><path d="M406.8,742.9l-4-13.6h-.1c0-.2.1-.2.3-.2h2.2c.1,0,.3,0,.3.2l2.6,10.1h.1a.1.1,0,0,0,.1-.1l2.7-10.1c0-.2.1-.2.3-.2h1.9c.2,0,.3,0,.3.2l2.8,10.1a.1.1,0,0,0,.1.1h0l2.8-10.1c0-.2.1-.2.3-.2h2.1c.1,0,.2,0,.2.1s.1.1.1.2l-4.1,13.6a.3.3,0,0,1-.3.3h-2.1a.3.3,0,0,1-.3-.3l-2.8-9.4h0a.1.1,0,0,0-.1.1l-2.6,9.4q-.2.3-.3.3h-2.2A.3.3,0,0,1,406.8,742.9Z"/><path d="M424,742.7a2.1,2.1,0,0,1-.5-1.3,1.7,1.7,0,0,1,.5-1.3,2.1,2.1,0,0,1,1.3-.5,1.9,1.9,0,0,1,1.3.5,1.7,1.7,0,0,1,.5,1.3,2.1,2.1,0,0,1-.5,1.3,1.9,1.9,0,0,1-1.3.5A2.1,2.1,0,0,1,424,742.7Z"/><path d="M432.9,742.9l-4-13.6h0c0-.2.1-.2.2-.2h2.2c.2,0,.3,0,.3.2l2.7,10.1h0c.1,0,.1,0,.1-.1l2.7-10.1c.1-.2.2-.2.3-.2h1.9c.2,0,.3,0,.4.2l2.7,10.1h.1a.1.1,0,0,1,.1-.1l2.7-10.1c.1-.2.2-.2.3-.2H448v.2l-4,13.6q-.2.3-.3.3h-2.2a.3.3,0,0,1-.3-.3l-2.7-9.4a.1.1,0,0,1-.1-.1h-.1l-2.6,9.4a.3.3,0,0,1-.3.3h-2.2Q433.1,743.2,432.9,742.9Z"/><path d="M461.7,736.8c0,.2-.1.3-.2.3h-8.9a.1.1,0,0,0-.1.1,5.8,5.8,0,0,0,.1,1.5,2.7,2.7,0,0,0,1.3,1.7,3.5,3.5,0,0,0,2.3.7,3.6,3.6,0,0,0,3.2-1.7c.1-.2.2-.3.4-.1l1.6,1a.3.3,0,0,1,0,.4,5.4,5.4,0,0,1-2.2,2,7.4,7.4,0,0,1-6.7-.2,5.8,5.8,0,0,1-2.1-2.5,12,12,0,0,1-.6-4,11.9,11.9,0,0,1,.3-3.1,5.4,5.4,0,0,1,2-3.1,6.9,6.9,0,0,1,7.9.3,7.3,7.3,0,0,1,1.7,4.2A20.8,20.8,0,0,1,461.7,736.8Zm-7.9-5.2a2.8,2.8,0,0,0-1.1,1.7,6.1,6.1,0,0,0-.2,1.5c0,.1,0,.1.1.1H459a.1.1,0,0,0,.1-.1c-.1-.6-.1-1.1-.2-1.4a3.4,3.4,0,0,0-1.1-1.7,3.5,3.5,0,0,0-2.1-.7A2.9,2.9,0,0,0,453.8,731.6Z"/><path d="M477,736a12.5,12.5,0,0,1-.5,3.6,6.3,6.3,0,0,1-1.9,2.8,6,6,0,0,1-3.4,1,5.8,5.8,0,0,1-1.8-.4,4.9,4.9,0,0,1-1.4-1.1h-.1c-.1,0-.1,0-.1.1v.9a.3.3,0,0,1-.3.3h-2.1a.3.3,0,0,1-.3-.3v-19a.3.3,0,0,1,.3-.3h2.1a.3.3,0,0,1,.3.3v6.2c0,.1,0,.1.1.1h.1a4.9,4.9,0,0,1,1.4-1.1,5.8,5.8,0,0,1,1.8-.4,5.6,5.6,0,0,1,3.5,1.1,6.3,6.3,0,0,1,1.9,2.8A11.8,11.8,0,0,1,477,736Zm-2.7.1a6.5,6.5,0,0,0-.9-3.7,2.6,2.6,0,0,0-2.5-1.4,2.5,2.5,0,0,0-2.3,1.5,6.8,6.8,0,0,0-.7,3.5,8.7,8.7,0,0,0,.6,3.6,2.7,2.7,0,0,0,2.5,1.5,2.8,2.8,0,0,0,2.6-1.6A6.6,6.6,0,0,0,474.3,736.1Z"/><path d="M482.6,742.8a4.3,4.3,0,0,1-2-1.4,3.2,3.2,0,0,1-.7-1.9v-.3a.3.3,0,0,1,.3-.3h2a.3.3,0,0,1,.3.3h0a1.7,1.7,0,0,0,.8,1.4,3.8,3.8,0,0,0,2.2.6,3.2,3.2,0,0,0,2-.6,1.4,1.4,0,0,0,.8-1.3,1.4,1.4,0,0,0-.7-1.3l-2.3-.8-2.7-.9a5.9,5.9,0,0,1-1.8-1.3,3.3,3.3,0,0,1-.8-2.2,3.6,3.6,0,0,1,1.5-3,6.7,6.7,0,0,1,3.9-1.1,8.8,8.8,0,0,1,2.9.5,5.8,5.8,0,0,1,1.9,1.5,3.6,3.6,0,0,1,.6,2h0c0,.2-.1.3-.2.3h-2a.3.3,0,0,1-.3-.3h0a1.4,1.4,0,0,0-.8-1.3,3.3,3.3,0,0,0-2.1-.6,3.7,3.7,0,0,0-2,.5,1.6,1.6,0,0,0-.8,1.3,1.5,1.5,0,0,0,.7,1.2,10.2,10.2,0,0,0,2.4.9l2.7.9a4.6,4.6,0,0,1,1.8,1.3,3.1,3.1,0,0,1,.8,2.2,3.4,3.4,0,0,1-1.5,3,6.8,6.8,0,0,1-4,1.1A6.5,6.5,0,0,1,482.6,742.8Z"/><path d="M494.5,726.2a1.4,1.4,0,0,1-.5-1.3,1.7,1.7,0,0,1,1.7-1.7,1.4,1.4,0,0,1,1.3.5,1.3,1.3,0,0,1,.5,1.2,1.7,1.7,0,0,1-1.8,1.8A1.3,1.3,0,0,1,494.5,726.2Zm-.2,16.6V729.2c0-.2.1-.2.3-.2h2.1c.2,0,.3,0,.3.2v13.6a.3.3,0,0,1-.3.3h-2.1A.3.3,0,0,1,494.3,742.8Z"/><path d="M508,731.2h-3.2v7.4a2.1,2.1,0,0,0,2.2,2.2h.8c.2,0,.3.1.3.2v1.8a.3.3,0,0,1-.3.3h-1.3a5.1,5.1,0,0,1-3.2-.8c-.7-.5-1-1.4-1-2.8v-8.3h-1.8a.3.3,0,0,1-.3-.3v-1.7c0-.2.1-.2.3-.2h1.7a.3.3,0,0,0,.1-.2v-3.2c0-.2.1-.3.2-.3h2.1c.1,0,.2.1.2.3v3.2a.3.3,0,0,0,.1.2H508c.1,0,.2,0,.2.2v1.7C508.2,731.1,508.1,731.2,508,731.2Z"/><path d="M522.8,736.8a.3.3,0,0,1-.3.3h-8.9a.1.1,0,0,0-.1.1,5.8,5.8,0,0,0,.1,1.5,3.1,3.1,0,0,0,1.3,1.7,3.5,3.5,0,0,0,2.3.7,3.6,3.6,0,0,0,3.2-1.7c.1-.2.2-.3.4-.1l1.6,1a.6.6,0,0,1,.1.4,6.4,6.4,0,0,1-2.3,2,6.6,6.6,0,0,1-3.2.7,5.9,5.9,0,0,1-3.4-.9,4.7,4.7,0,0,1-2.1-2.5,9.9,9.9,0,0,1-.7-4,11.9,11.9,0,0,1,.3-3.1,5.4,5.4,0,0,1,2-3.1,6.2,6.2,0,0,1,3.7-1.1,5.9,5.9,0,0,1,4.2,1.4,7.3,7.3,0,0,1,1.7,4.2A19.3,19.3,0,0,1,522.8,736.8Zm-8-5.2a3.4,3.4,0,0,0-1.1,1.7,6.1,6.1,0,0,0-.2,1.5c0,.1,0,.1.1.1H520c.1,0,.1,0,.1-.1a4.6,4.6,0,0,0-.2-1.4,2.8,2.8,0,0,0-1.1-1.7,3.2,3.2,0,0,0-2-.7A3.2,3.2,0,0,0,514.8,731.6Z"/><path d="M526.1,742.7a2.1,2.1,0,0,1-.5-1.3,1.7,1.7,0,0,1,.5-1.3,1.9,1.9,0,0,1,1.3-.5,2.1,2.1,0,0,1,1.3.5,1.7,1.7,0,0,1,.5,1.3,1.7,1.7,0,0,1-1.8,1.8A1.9,1.9,0,0,1,526.1,742.7Z"/><path d="M534.8,742.3a5.5,5.5,0,0,1-2-2.9,10.9,10.9,0,0,1-.4-3.4,11.8,11.8,0,0,1,.4-3.4,4.9,4.9,0,0,1,2.1-2.8,6.4,6.4,0,0,1,7.2,0,5,5,0,0,1,2.1,2.7c.1.3.1.6.2.9s-.1.2-.3.3l-2.1.3h0q-.2,0-.3-.3v-.4a2.3,2.3,0,0,0-1.1-1.6,3.3,3.3,0,0,0-2.1-.7,3.5,3.5,0,0,0-2,.7,2.8,2.8,0,0,0-1.1,1.7,9.8,9.8,0,0,0-.2,2.6,10.6,10.6,0,0,0,.2,2.7,3.4,3.4,0,0,0,1.1,1.7,3.5,3.5,0,0,0,2,.7,3.3,3.3,0,0,0,2.1-.7,2.5,2.5,0,0,0,1.1-1.7h.1c0-.2.1-.2.3-.2l2.1.4a.2.2,0,0,1,.2.2h0a1.3,1.3,0,0,1-.1.6,4.7,4.7,0,0,1-2.1,2.7,6.1,6.1,0,0,1-3.6,1.1A6.5,6.5,0,0,1,534.8,742.3Z"/><path d="M549.5,742.3a5.3,5.3,0,0,1-2.1-2.9,11.6,11.6,0,0,1-.5-3.4,8.2,8.2,0,0,1,.5-3.3,5.3,5.3,0,0,1,2.1-2.9,6.5,6.5,0,0,1,3.7-1.1,6.1,6.1,0,0,1,3.5,1.1,5.4,5.4,0,0,1,2.1,2.8,11.8,11.8,0,0,1,0,6.8,5.3,5.3,0,0,1-2.1,2.9,6.1,6.1,0,0,1-3.6,1.1A6.6,6.6,0,0,1,549.5,742.3Zm5.6-1.9a4.3,4.3,0,0,0,1.2-1.7,10.1,10.1,0,0,0,.3-2.7,9.8,9.8,0,0,0-.3-2.6,3,3,0,0,0-1.2-1.7,3.2,3.2,0,0,0-2-.7,3.5,3.5,0,0,0-2,.7,3,3,0,0,0-1.2,1.7,9.8,9.8,0,0,0-.3,2.6,10.1,10.1,0,0,0,.3,2.7,3,3,0,0,0,1.2,1.7,3.2,3.2,0,0,0,4,0Z"/><path d="M580.9,730a5.2,5.2,0,0,1,1.2,3.6v9.3c0,.2,0,.3-.2.3h-2.1a.3.3,0,0,1-.3-.3v-8.8a3.1,3.1,0,0,0-.8-2.2,2.8,2.8,0,0,0-2-.8,2.5,2.5,0,0,0-2.1.8,2.6,2.6,0,0,0-.8,2.2v8.8a.3.3,0,0,1-.3.3h-2.1a.3.3,0,0,1-.3-.3v-8.8a3.1,3.1,0,0,0-.7-2.2,3,3,0,0,0-2.1-.8,2.4,2.4,0,0,0-2,.8,2.6,2.6,0,0,0-.8,2.2v8.8a.3.3,0,0,1-.3.3h-2.1a.3.3,0,0,1-.3-.3V729.2c0-.2.1-.2.3-.2h2.1c.2,0,.3,0,.3.2v1h.1a4.7,4.7,0,0,1,3.6-1.4,4.3,4.3,0,0,1,2.4.5,4.1,4.1,0,0,1,1.6,1.6c0,.1.1.1.2,0a3.7,3.7,0,0,1,1.7-1.6,5.3,5.3,0,0,1,2.5-.5A4.5,4.5,0,0,1,580.9,730Z"/><path class="cls-7" d="M48.7,743a6,6,0,0,1-2.7-2.5,8,8,0,0,1-1-3.8v-6.8a8,8,0,0,1,1-3.8,6.6,6.6,0,0,1,2.7-2.5,9.3,9.3,0,0,1,8,0,5.3,5.3,0,0,1,2.7,2.4,6.1,6.1,0,0,1,1,3.6c0,.2-.1.3-.4.3l-3.4.2h-.1a.3.3,0,0,1-.3-.3,3.3,3.3,0,0,0-.9-2.5,3.4,3.4,0,0,0-2.6-1,3.2,3.2,0,0,0-2.5,1,3,3,0,0,0-1,2.5v7.1a3.2,3.2,0,0,0,1,2.5,3.5,3.5,0,0,0,2.5.9,3.7,3.7,0,0,0,2.6-.9,3.5,3.5,0,0,0,.9-2.5c0-.2.1-.3.4-.3h3.7c0,.1.1.1.1.2a6.1,6.1,0,0,1-1,3.6,6,6,0,0,1-2.7,2.5,9.8,9.8,0,0,1-4,.8A8.4,8.4,0,0,1,48.7,743Z"/><path class="cls-7" d="M66.7,726.1a2.4,2.4,0,0,1-.7-1.7,2.2,2.2,0,0,1,.7-1.7,2.4,2.4,0,0,1,1.7-.6,2.1,2.1,0,0,1,1.6.6,2.2,2.2,0,0,1,.7,1.7,2.1,2.1,0,0,1-.7,1.7,2.4,2.4,0,0,1-1.6.7A2.4,2.4,0,0,1,66.7,726.1Zm-.4,17.5c0-.1-.1-.2-.1-.3V728.6h4c.1,0,.1.1.1.2v14.5a.4.4,0,0,1-.1.3h-4Z"/><path class="cls-7" d="M85.2,731.7H82.1c-.1,0-.1.1-.1.2v6.2a2.1,2.1,0,0,0,.4,1.5,1.7,1.7,0,0,0,1.3.5h1.2c.1,0,.1.1.1.2v2.8c0,.2-.1.4-.3.4H82.9a6.1,6.1,0,0,1-3.7-.9q-1.2-.7-1.2-3V732a.2.2,0,0,0-.2-.2H75.9c-.1-.1-.1-.1-.1-.2v-2.9h1.9a.2.2,0,0,0,.2-.2v-3.5c0-.1,0-.2.1-.2s.1-.1.2-.1h3.6c.1,0,.1.1.1.2v3.5c0,.1,0,.2.1.2H85c.1,0,.2,0,.2.1v2.9C85.3,731.6,85.3,731.6,85.2,731.7Z"/><path class="cls-7" d="M90.6,749.5a.4.4,0,0,1-.1-.3v-2.7a.4.4,0,0,1,.1-.3h.3l1.9-.2a1.9,1.9,0,0,0,1.2-.7,2.6,2.6,0,0,0,.6-1.4c.1-.1.1-.1,0-.2l-4.8-14.7v-.2c0-.2.1-.2.3-.2h3.7c.2,0,.3,0,.4.2l2.5,9.6c0,.1,0,.1.1.1h.1l2.4-9.6c.1-.2.2-.2.5-.2h3.6c.1,0,.2,0,.2.1s.1.1,0,.3l-5.1,15.3a13,13,0,0,1-1.5,3.3,4.9,4.9,0,0,1-2.1,1.6,14,14,0,0,1-4,.5h-.3Z"/><path d="M179.3,591.9h2.8c.3,0,.4.1.4.4v25.1a.4.4,0,0,1-.4.4h-2.8a.4.4,0,0,1-.4-.4V598.3c-.1,0-.1,0-.1.1l-5.3,8.1-.5.2h-1.4l-.4-.2-5.3-8h-.1c-.1,0-.1.1-.1.2v18.8a.4.4,0,0,1-.4.4h-2.8a.4.4,0,0,1-.4-.4V592.3a.4.4,0,0,1,.4-.4h2.8l.5.2,6.4,9.7h.2l6.5-9.7A.5.5,0,0,1,179.3,591.9Z"/><path d="M194.7,616.7a7.5,7.5,0,0,1-2.8-3.9,12.5,12.5,0,0,1-.7-4.5,14.2,14.2,0,0,1,.6-4.4,7.6,7.6,0,0,1,2.9-3.9,8.2,8.2,0,0,1,4.8-1.3,7.3,7.3,0,0,1,7.5,5.1,17.2,17.2,0,0,1,0,9,8,8,0,0,1-2.8,3.9,8.4,8.4,0,0,1-4.7,1.4A8.7,8.7,0,0,1,194.7,616.7Zm7.4-2.5a6,6,0,0,0,1.6-2.4,16.1,16.1,0,0,0,.4-3.5,15.9,15.9,0,0,0-.4-3.4,4.4,4.4,0,0,0-1.6-2.3,4,4,0,0,0-2.7-.9,4.5,4.5,0,0,0-4.2,3.2,10.9,10.9,0,0,0-.4,3.4,11.2,11.2,0,0,0,.4,3.5,4.5,4.5,0,0,0,1.6,2.4,4.6,4.6,0,0,0,2.7.8A4.7,4.7,0,0,0,202.1,614.2Z"/><path d="M231.8,608.3a15.5,15.5,0,0,1-.7,4.7,7.3,7.3,0,0,1-2.6,3.7,7.2,7.2,0,0,1-4.4,1.4,4.8,4.8,0,0,1-2.4-.6,4.5,4.5,0,0,1-1.9-1.4c-.1-.1-.1-.1-.2,0h0v1.2a.4.4,0,0,1-.4.4h-2.8a.4.4,0,0,1-.4-.4V592.3c0-.3.1-.4.4-.4h2.8a.4.4,0,0,1,.4.4v8.2h.2a4.5,4.5,0,0,1,1.9-1.4,4.7,4.7,0,0,1,2.4-.5,7.3,7.3,0,0,1,4.5,1.3,7.4,7.4,0,0,1,2.6,3.8A15.3,15.3,0,0,1,231.8,608.3Zm-3.6.1a8.9,8.9,0,0,0-1.2-4.9,3.5,3.5,0,0,0-3.3-1.8,3.4,3.4,0,0,0-3.1,1.9,8.9,8.9,0,0,0-1,4.7,9.8,9.8,0,0,0,.9,4.7,3.5,3.5,0,0,0,3.2,2,3.9,3.9,0,0,0,3.6-2A10.2,10.2,0,0,0,228.2,608.4Z"/><path d="M240.5,595.3a2.4,2.4,0,0,1-.6-1.7,2.1,2.1,0,0,1,2.3-2.3,2.2,2.2,0,0,1,2.4,2.3,2.4,2.4,0,0,1-2.4,2.4A2.3,2.3,0,0,1,240.5,595.3Zm-.1,22.1V599.3c0-.2.1-.3.4-.3h2.8a.3.3,0,0,1,.3.3v18.1a.3.3,0,0,1-.3.3h-2.8C240.5,617.7,240.4,617.6,240.4,617.4Z"/><path d="M253.2,617.4V592.3c0-.3.1-.4.4-.4h2.8a.4.4,0,0,1,.4.4v25.1a.4.4,0,0,1-.4.4h-2.8A.4.4,0,0,1,253.2,617.4Z"/><path d="M280.9,609.4c0,.3-.1.4-.4.4H268.8c-.1,0-.2,0-.2.1a9.5,9.5,0,0,0,.2,2,4.8,4.8,0,0,0,1.7,2.3,5.7,5.7,0,0,0,3.1.8,4.8,4.8,0,0,0,4.2-2.3c.1-.2.3-.2.5-.1l2.1,1.4c.2.2.2.3.1.5a7.3,7.3,0,0,1-2.9,2.6,8.8,8.8,0,0,1-4.3,1,8.5,8.5,0,0,1-4.6-1.2,7.1,7.1,0,0,1-2.7-3.4,13.5,13.5,0,0,1-.9-5.2,14.4,14.4,0,0,1,.4-4.1,7.1,7.1,0,0,1,2.6-4.1,8.8,8.8,0,0,1,4.9-1.4,7.9,7.9,0,0,1,5.6,1.8,9.6,9.6,0,0,1,2.2,5.5C280.9,607,280.9,608.2,280.9,609.4Zm-10.5-6.9a4.1,4.1,0,0,0-1.4,2.1,11.2,11.2,0,0,0-.4,2.1.2.2,0,0,0,.2.2h8.4a.2.2,0,0,0,.2-.2c-.1-.8-.2-1.4-.2-1.8a4.6,4.6,0,0,0-1.5-2.3,4.6,4.6,0,0,0-5.3-.1Z"/><circle class="cls-2" cx="690.3" cy="659.4" r="87"/><path class="cls-7" d="M639,647.3a40.3,40.3,0,0,1,6.8-.5c3.5,0,6,.8,7.6,2.2a7.4,7.4,0,0,1,2.4,5.7,7.8,7.8,0,0,1-2.1,5.8c-1.8,2-4.9,3-8.3,3a11.9,11.9,0,0,1-2.8-.2v10.9H639Zm3.6,13.1a11.2,11.2,0,0,0,2.9.3c4.2,0,6.8-2.1,6.8-5.8s-2.5-5.4-6.4-5.4a18.3,18.3,0,0,0-3.3.3Z"/><path class="cls-7" d="M659.8,660.7c0-2.3-.1-4.2-.2-6.1h3.1l.2,3.9h.1a6,6,0,0,1,5.4-4.3h1.1v3.4l-1.3-.2c-2.5,0-4.2,1.9-4.7,4.6a8.8,8.8,0,0,0-.2,1.7v10.4h-3.5Z"/><path class="cls-7" d="M690.3,664.3c0,7.2-5,10.4-9.7,10.4s-9.4-3.9-9.4-10.1,4.3-10.4,9.7-10.4S690.3,658.3,690.3,664.3Zm-15.5.2c0,4.2,2.5,7.5,5.9,7.5s6-3.2,6-7.6-1.7-7.5-5.9-7.5S674.8,660.7,674.8,664.5Z"/><path class="cls-7" d="M695.2,674.2V657.3h-2.8v-2.7h2.8v-1c0-5.2,3-8.5,8.5-8.5a10.2,10.2,0,0,1,5,1.2l-1,2.8a7.8,7.8,0,0,0-4.2-1.2c-3.7,0-4.8,2.7-4.8,5.8v.9h11.4v19.6h-3.6V657.3h-7.8v16.9Z"/><path class="cls-7" d="M716,645.5h3.5v28.7H716Z"/><path class="cls-7" d="M727.5,665.1c.1,4.8,3.1,6.8,6.7,6.8a14,14,0,0,0,5.4-1l.6,2.5a15.1,15.1,0,0,1-6.5,1.2c-6,0-9.6-4-9.6-9.9s3.5-10.5,9.2-10.5,8.1,5.6,8.1,9.2a7.2,7.2,0,0,1-.2,1.7Zm10.4-2.6c.1-2.2-.9-5.8-4.9-5.8s-5.2,3.4-5.5,5.8Z"/></svg>